<svg xmlns="http://www.w3.org/2000/svg" width="569.87" height="570.48" viewBox="0 0 569.87 570.48"><defs><style>.a{fill:#482ff7;}</style></defs><title>circularWords</title><path class="a" d="M311.29,60.8a18.25,18.25,0,0,1-5.06-2.87l4-6.36a19.7,19.7,0,0,0,4.16,2.5A17.54,17.54,0,0,0,319,55.46a7.59,7.59,0,0,0,2.82,0,1.23,1.23,0,0,0,1-1A1.44,1.44,0,0,0,322,53a25.13,25.13,0,0,0-3.44-1.48,39.8,39.8,0,0,1-5.13-2.24A9.11,9.11,0,0,1,310,46.22a6.93,6.93,0,0,1-.88-5,8.3,8.3,0,0,1,2.17-4.53A9.79,9.79,0,0,1,316.2,34a18.23,18.23,0,0,1,7.25-.17A26,26,0,0,1,329,35.24a17.64,17.64,0,0,1,4.57,2.52l-3.81,6.35a17.38,17.38,0,0,0-7.41-3.2q-3.6-.54-3.86,1.2c-.08.56.21,1,.88,1.41a24.23,24.23,0,0,0,3.39,1.41,36.56,36.56,0,0,1,5.14,2.16,9.38,9.38,0,0,1,3.41,3.07,6.84,6.84,0,0,1,.89,5A8.2,8.2,0,0,1,330,59.66a9.93,9.93,0,0,1-4.87,2.71,18,18,0,0,1-7.25.2A29.12,29.12,0,0,1,311.29,60.8Z"/><path class="a" d="M366.42,69.41l-10-3.53-3.39,4-9.06-3.18,20.84-22.35,8.76,3.08,2.25,30.47-9.21-3.24Zm-.2-7.28L366,54.59l-4.91,5.73Z"/><path class="a" d="M427.35,74.8l-14.43,24-6.65-4-2.56-16.39-6.56,10.9-7.88-4.74,14.43-24,6.65,4L412.91,81l6.56-10.9Z"/><path class="a" d="M459.85,131.7l-1.68-1.93-5.3,4.63-6.21-7.1,21.08-18.43L476.61,119A16.73,16.73,0,0,1,480.1,125a10.33,10.33,0,0,1-7.89,13,9.57,9.57,0,0,1-5.26-.61l-2.63,10.12-6.64-7.59ZM472,126.1a4.19,4.19,0,0,0-1.25-2.74l-2.26-2.59-4.94,4.32,2.27,2.59a4.16,4.16,0,0,0,2.54,1.6,3,3,0,0,0,2.45-.87A3.07,3.07,0,0,0,472,126.1Z"/><path class="a" d="M487.63,175.1l-5.3-9.23-5.17.8-4.78-8.32L502.76,155l4.62,8L489.2,187.62l-4.87-8.46Zm4.6-5.64,4.75-5.87-7.46,1.15Z"/><path class="a" d="M502.72,225.2l12.15-3.91-11.6-2.72-1.24-4,7.52-8.75-11.75,3.7-2.59-8.2,26.71-8.41,2.33,7.4-11.49,13.18,16.9,4,2.33,7.41L505.3,233.4Z"/><path class="a" d="M510.35,257.53a14.36,14.36,0,0,1,25.43-2.18,17.38,17.38,0,0,1,2.56,7.93,17.14,17.14,0,0,1-1.18,8.25,14.35,14.35,0,0,1-25.43,2.18,18.5,18.5,0,0,1-1.38-16.18Zm7.56,10.69a6.1,6.1,0,0,0,2.62,2,8.6,8.6,0,0,0,7.38-.63,6.17,6.17,0,0,0,2.23-2.46,6.3,6.3,0,0,0-.54-6.34,6.14,6.14,0,0,0-2.62-2,8.6,8.6,0,0,0-7.38.63,6.17,6.17,0,0,0-2.23,2.46,6.28,6.28,0,0,0,.54,6.33Zm28.53-4.55.74,8.57-7-7.3-.51-6Z"/><path class="a" d="M535.23,329.13l-27.8-3.3.91-7.7,13.89-9.07-12.64-1.5,1.09-9.14,27.8,3.31-.91,7.7-13.89,9.07,12.63,1.5Z"/><path class="a" d="M508.87,373.78l-4.7,11-6.26-2.66,4.7-11Z"/><path class="a" d="M466.35,420a18.24,18.24,0,0,1,5-2.94l3.49,6.66a19,19,0,0,0-4.24,2.35,17.62,17.62,0,0,0-3.51,3.29,7.33,7.33,0,0,0-1.44,2.43,1.23,1.23,0,0,0,.37,1.37,1.45,1.45,0,0,0,1.72,0,25.37,25.37,0,0,0,3-2.24,40.84,40.84,0,0,1,4.5-3.32,9,9,0,0,1,4.34-1.35,6.9,6.9,0,0,1,4.77,1.74,8.3,8.3,0,0,1,2.84,4.15,9.72,9.72,0,0,1-.09,5.57,18.15,18.15,0,0,1-3.47,6.36,26,26,0,0,1-4,4.05,18,18,0,0,1-4.47,2.7l-3.59-6.47a17.47,17.47,0,0,0,6.48-4.82q2.26-2.85.88-3.94a1.38,1.38,0,0,0-1.66.06,23.13,23.13,0,0,0-2.92,2.23,37.26,37.26,0,0,1-4.44,3.37,9.45,9.45,0,0,1-4.36,1.41,6.86,6.86,0,0,1-4.77-1.72,8.27,8.27,0,0,1-2.82-4.13,10,10,0,0,1,.09-5.58,18.11,18.11,0,0,1,3.45-6.37A29.36,29.36,0,0,1,466.35,420Z"/><path class="a" d="M431.34,463.46l8.06-6.94-1.76-4.93,7.28-6.26,9,29.21-7,6-27.54-13.23,7.39-6.37Zm6.41,3.46,6.65,3.56-2.53-7.11Z"/><path class="a" d="M396.35,513.64l-13.64-24.45,6.77-3.78L405,491.33l-6.19-11.11,8-4.48,13.64,24.45L413.68,504l-15.49-5.92,6.2,11.11Z"/><path class="a" d="M330.82,513.46l2.51-.5-1.36-6.9,9.26-1.83,5.42,27.47-13.23,2.61a16.46,16.46,0,0,1-6.88.05A10.35,10.35,0,0,1,319.18,521a9.54,9.54,0,0,1,3.16-4.25l-7.44-7.34,9.89-1.95Zm-1.21,13.3a4.18,4.18,0,0,0,3,.29l3.38-.67L334.71,520l-3.38.66a4.27,4.27,0,0,0-2.66,1.4,3.11,3.11,0,0,0-.47,2.56A3.08,3.08,0,0,0,329.61,526.76Z"/><path class="a" d="M279.25,515.74l10.64.17,2-4.85,9.6.16L288.76,539l-9.28-.15-11.79-28.19,9.76.16Zm2.49,6.84,2.61,7.08,2.83-7Z"/><path class="a" d="M228.39,504l-2.65,12.48,8.13-8.7,4.06.89,3.84,10.88,2.64-12,8.4,1.84-6,27.36L239.24,535l-5.72-16.53-11.87,12.67-7.58-1.66L220,502.11Z"/><path class="a" d="M173.24,522.72l-7.79-3.63,9.84-2.47,5.44,2.53Zm23.31-28.24a14.36,14.36,0,0,1-10.78,23.14,18.52,18.52,0,0,1-14.72-6.86,14.34,14.34,0,0,1,10.78-23.13,18.44,18.44,0,0,1,14.72,6.85Zm-13,1.23a6.18,6.18,0,0,0-3.08,1.26,7.84,7.84,0,0,0-2.32,3,7.75,7.75,0,0,0-.8,3.71,6.08,6.08,0,0,0,1,3.16,6.28,6.28,0,0,0,5.76,2.69,6.14,6.14,0,0,0,3.08-1.26,8.63,8.63,0,0,0,3.13-6.71,6.27,6.27,0,0,0-1-3.16,6.34,6.34,0,0,0-5.77-2.69Z"/><path class="a" d="M122.07,480.26l16.77-22.42,6.22,4.64L146,479l7.62-10.18,7.37,5.51-16.77,22.42L138,492.14l-.9-16.56-7.62,10.19Z"/><path class="a" d="M96.58,435.18l-7.24-9.57,5.42-4.1,7.25,9.56Z"/><path class="a" d="M77.66,375.34a18.31,18.31,0,0,1,0,5.81l-7.52-.28a19.53,19.53,0,0,0,.08-4.85,17.63,17.63,0,0,0-1.11-4.68,7.4,7.4,0,0,0-1.39-2.46,1.21,1.21,0,0,0-1.37-.36,1.43,1.43,0,0,0-.82,1.51,23.85,23.85,0,0,0,.45,3.72,40.39,40.39,0,0,1,.63,5.55,9.18,9.18,0,0,1-1,4.44A6.91,6.91,0,0,1,61.79,387a8.36,8.36,0,0,1-5,.4A9.85,9.85,0,0,1,52,384.56a18.4,18.4,0,0,1-3.79-6.18,25.72,25.72,0,0,1-1.52-5.49,17.75,17.75,0,0,1-.12-5.22l7.41.11a17.25,17.25,0,0,0,1,8c.89,2.25,1.89,3.16,3,2.73.52-.21.77-.7.77-1.47a23.82,23.82,0,0,0-.48-3.64,36.23,36.23,0,0,1-.71-5.53,9.31,9.31,0,0,1,1-4.49,6.78,6.78,0,0,1,3.86-3.28,8.21,8.21,0,0,1,5-.39,10,10,0,0,1,4.79,2.85,18.27,18.27,0,0,1,3.81,6.17A29.8,29.8,0,0,1,77.66,375.34Z"/><path class="a" d="M57.42,323.32l2,10.45,5.14.94,1.79,9.43-29.79-6.81-1.73-9.12L60.05,311l1.82,9.59Zm-6.19,3.82-6.41,4,7.42,1.36Z"/><path class="a" d="M31.48,267.91l28,.45-.13,7.76L46.46,286.55l12.72.21L59,296l-28-.45.13-7.76,12.89-10.44-12.72-.2Z"/><path class="a" d="M64.21,211.22l-.82,2.43,6.67,2.25-3,8.95-26.53-9,4.32-12.77a16.67,16.67,0,0,1,3.38-6,9.71,9.71,0,0,1,10.71-2.71,9.83,9.83,0,0,1,4.53,3,9.66,9.66,0,0,1,2.12,4.85l10.07-2.8L72.41,209Zm-10.94-7.67A4.16,4.16,0,0,0,51.54,206l-1.11,3.26,6.22,2.1,1.1-3.26a4.21,4.21,0,0,0,.11-3,3.07,3.07,0,0,0-2-1.68A3.1,3.1,0,0,0,53.27,203.55Z"/><path class="a" d="M87.81,165.44l-5.32,9.21,3.28,4.07L81,187,62.85,162.42l4.65-8,30.36,3.42L93,166.25Zm-7.19-1.16-7.45-1.17L77.9,169Z"/><path class="a" d="M123.57,127.22l-9.48-8.54,3.47,11.39-2.8,3.08L103.42,131l9.11,8.3-5.79,6.36L86,126.84l5.23-5.74,17.17,3.31-5-16.61,5.23-5.74,20.75,18.8Z"/><path class="a" d="M147.66,104.33A14.36,14.36,0,0,1,133,83.47a18.51,18.51,0,0,1,13.27-9.36A14.36,14.36,0,0,1,160.93,95a18.44,18.44,0,0,1-13.27,9.36ZM134.75,70.06l7-5L139,74.88l-4.91,3.46Zm18.33,22.35a6.21,6.21,0,0,0,.44-3.3,8.59,8.59,0,0,0-4.27-6,6.1,6.1,0,0,0-3.25-.69A6.29,6.29,0,0,0,140.8,86a6.16,6.16,0,0,0-.44,3.29,8.59,8.59,0,0,0,4.27,6,6.08,6.08,0,0,0,3.25.69A5.93,5.93,0,0,0,151,94.94,6,6,0,0,0,153.08,92.41Z"/><path class="a" d="M197,46.78l11.11,25.7L201,75.56l-14.81-7.45,5,11.67-8.44,3.65-11.11-25.7,7.12-3.08,14.81,7.46-5-11.68Z"/><path class="a" d="M248.87,47.19l11.91-1.49.84,6.75-11.91,1.49Z"/></svg>