<svg xmlns="http://www.w3.org/2000/svg" viewBox="0 0 347.23 738.69"><defs><style>.cls-1,.cls-4{fill:#482ff7;}.cls-2{fill:#ff3381;}.cls-3{fill:#fff;}.cls-4{font-size:49.96px;font-family:Barqish;}</style></defs><title>king_logo_img_nav</title><g id="alone"><path class="cls-1" d="M318.32,521.45l-.74-80.7L319,309.09l.86-84.39,4.45-3.71a5.91,5.91,0,0,0,.39-8.71l-1.51-1.51a1.23,1.23,0,0,1,0-1.74l1.15-1.14a5.91,5.91,0,0,0,0-8.38l-.72-.71a1.24,1.24,0,0,1,0-1.75l.73-.72a5.9,5.9,0,0,0,0-8.36,1.24,1.24,0,0,1,0-1.75l.15-.15a5.9,5.9,0,0,0,0-8.35l-.29-.3a1.23,1.23,0,0,1,0-1.74l.44-.44a5.91,5.91,0,0,0,0-8.35l-.16-.16a1.23,1.23,0,0,1,0-1.74l4.48-4.5a5.89,5.89,0,0,0,0-8.34l-6-6a4.59,4.59,0,0,1,0-6.5,4.58,4.58,0,0,0,0-6.49l-2.85-2.86a3.39,3.39,0,0,0-2.37-1,7.85,7.85,0,0,1-7.87-7.87v-1a7,7,0,0,0-7-7h-10.6A1.44,1.44,0,0,1,290.8,112v-6.8a4.76,4.76,0,0,0-4.75-4.76H271a4.76,4.76,0,0,1-4.76-4.76,4.76,4.76,0,0,0-4.76-4.76h-6.1a3.32,3.32,0,0,0-3.32,3.32v.6a3.31,3.31,0,0,1-3.31,3.31H247a3.31,3.31,0,0,1-3.31-3.31v-.89a3.31,3.31,0,0,0-3.32-3.31h-5.8a3.31,3.31,0,0,0-3.31,3.31v1.43A3.32,3.32,0,0,1,228,98.68h-9.54a3.32,3.32,0,0,1-3.32-3.32,3.31,3.31,0,0,0-3.31-3.31h-3.2a3.32,3.32,0,0,0-3.32,3.31v1.17A3.32,3.32,0,0,1,202,99.85H196V91.47l6.63-13.88V68.67l-21-18.23a2.16,2.16,0,0,1-.61-.91h-14a2.16,2.16,0,0,1-.61.91l-21,18.23v8.92l6.63,13.88v8.38h-9.23V95.36a3.32,3.32,0,0,0-3.32-3.31H136.4a3.31,3.31,0,0,0-3.31,3.31,3.32,3.32,0,0,1-3.32,3.32H120.2a3.32,3.32,0,0,1-3.32-3.32V93.93a3.31,3.31,0,0,0-3.31-3.31H107.8a3.31,3.31,0,0,0-3.32,3.31v.89a3.31,3.31,0,0,1-3.31,3.31H99.42a3.31,3.31,0,0,1-3.31-3.31v-.6a3.32,3.32,0,0,0-3.32-3.32H85.25a3.32,3.32,0,0,0-3.32,3.32v3.61a2.59,2.59,0,0,1-2.59,2.59H60A2.59,2.59,0,0,0,57.39,103v7.82a2.6,2.6,0,0,1-2.6,2.59H40.89A2.59,2.59,0,0,0,38.3,116v10.6a2.69,2.69,0,0,1-2.69,2.69h-5a3.69,3.69,0,0,0-2.6,1.08L24.6,133.8a3.68,3.68,0,0,0,0,5.19l1.29,1.3a3.67,3.67,0,0,1,0,5.2l-8.23,8.23a3.69,3.69,0,0,0,0,5.2L22,163.26a3.69,3.69,0,0,1,0,5.2,3.67,3.67,0,0,0,0,5.2l.35.36a3.57,3.57,0,0,1,0,5.06l-.29.29a3.59,3.59,0,0,0,0,5.06l.14.14a3.58,3.58,0,0,1,0,5.05,3.58,3.58,0,0,0,0,5.06l.71.71a3.59,3.59,0,0,1,0,5.07l-.71.71a3.59,3.59,0,0,0,0,5.06l1.14,1.14a3.57,3.57,0,0,1,0,5.06l-1.64,1.64a3.57,3.57,0,0,0,.24,5.28l9.79,8.18v0l1.72,81.79,2.74,131.4-.74,80.7a12.1,12.1,0,0,0-11.79,14.84L65.47,716.52H288.32l41.82-180.21A12.13,12.13,0,0,0,318.32,521.45ZM192.1,109.39h15.12l32.95,19.92L249.05,144v32.81l-19.23,19.23,7.46,7.49v5.31h-7.92l-8.68-8.72-7.46,7.46v13.21l10.49,10.48H200.07l-7.69-7.71,12.89-12.89v-8.37l-5.86-1.09v-7.89L192.1,186ZM99.14,144,108,129.31l32.92-19.92h15.17V186l-7.34,7.31v7.89l-5.86,1.09v8.37l12.89,12.89-7.69,7.71h-23.6l10.45-10.48V207.61l-7.43-7.46-8.71,8.72h-7.89v-5.31l7.46-7.49L99.14,176.84ZM45.75,202,40,170.86a2.81,2.81,0,0,1,0-1.08l5.34-23.55a2.73,2.73,0,0,1,.7-1.29l29.74-30.15a2.61,2.61,0,0,1,1.84-.77H87.88a2.59,2.59,0,0,1,2.6,2.6v5.58a5,5,0,0,1-3.31,4.7L81.35,129a5,5,0,0,0-3.3,4.71,4.08,4.08,0,0,0,1.19,2.88l3.15,3.14a4.06,4.06,0,0,1,0,5.75L76,151.84a4.14,4.14,0,0,0-1.23,2.95v2a4,4,0,0,0,1.2,2.88,4.19,4.19,0,0,1,0,5.92l-.45.44a4.1,4.1,0,0,0-1.19,2.88V172a4.06,4.06,0,0,0,1.19,2.87l2.34,2.34a4.06,4.06,0,0,1,1.19,2.87v8.76a2.59,2.59,0,0,0,2.59,2.59h.13A2.59,2.59,0,0,1,84.39,194v1.26a2.58,2.58,0,0,1-.75,1.82,4.06,4.06,0,0,0,0,5.73l3.1,3.1a2.63,2.63,0,0,1,.76,1.83,3.62,3.62,0,0,1-3.62,3.62H80.75a3.62,3.62,0,0,0-3.36,2.27l-1.51,3.78a3.61,3.61,0,0,0-.26,1.49l.2,4.77a3.57,3.57,0,0,0,1.05,2.4l9.38,9.41-13.12-2.32v-2.1a3.62,3.62,0,0,0-1.06-2.56l-7.36-7.36a2.58,2.58,0,0,0-3.67,0l-3.63,3.62a2.6,2.6,0,0,1-3.66,0l-.88-.88a2.6,2.6,0,0,1,0-3.68,2.63,2.63,0,0,0,.77-1.85v-6.79a2.59,2.59,0,0,0-.76-1.83l-6.41-6.41A2.68,2.68,0,0,1,45.75,202ZM157.18,440.75h-54.3a7.63,7.63,0,0,0-7.63,7.63v52.06L81.9,487.12a16.28,16.28,0,0,1-4.77-11.5V454.8a16.26,16.26,0,0,0-5.69-12.35l-2-1.7L55.52,428.87a16.27,16.27,0,0,1-5.71-12.37V345.86h30v10.79h0v11.51a2.2,2.2,0,0,0,2.2,2.2h32.68a8.18,8.18,0,1,0,13.33,0h20.23l8.89,31.35Zm19.72,79-.15-.11.15-.09Zm129-104.52a15.49,15.49,0,0,1-5.45,11.8l-16.12,13.74-2.26,1.93a15.48,15.48,0,0,0-5.43,11.78v21.47a15.53,15.53,0,0,1-4.55,11l-13.57,13.54V448.38a7.63,7.63,0,0,0-7.63-7.63H197v-39l8.86-31.35h16.7V372a8.16,8.16,0,0,0,.1,6.47l0,.05a8.17,8.17,0,1,0,14.1-8.11H274V357.27h0v-11.4h31.92Zm.09-88.46-.09,2.52-109.3,12.88a6.61,6.61,0,0,0-5.74,5.41h-.07v.53c0,.2,0,.41,0,.62v7.92h0v4.52h0V462.29a14,14,0,0,1-4.05,9.83A13.88,13.88,0,0,1,163,462.29V361.16h0v-4.53h0V348.7a6.62,6.62,0,0,0-5.83-6.57L49.81,329.25V302.66c7.75-7.63,5.92-18.43,16.55-24.89a24.14,24.14,0,0,1,3.74-1.89c17.55-6.37,22.75,10,39.35,5.58,16.72-3.83,13.61-20.72,31.9-23.29,18.37-1.92,19.46,15.23,36.52,14.91,17.09.32,18.14-16.83,36.52-14.94,18.29,2.57,15.17,19.46,31.89,23.29,15.6,4.2,21.15-10.06,36.35-6.49a26.09,26.09,0,0,1,3,.92c14.89,6,11.75,18.4,20.38,26.8Zm2.21-156.18-5.74,31a3.88,3.88,0,0,1-1.05,2l-5.76,5.78a3.82,3.82,0,0,0-1.12,2.7v6.29a2.6,2.6,0,0,0,.76,1.84,2.58,2.58,0,0,1,0,3.67,3.82,3.82,0,0,1-5.41,0L288,222a3.84,3.84,0,0,0-5.42,0l-7.25,7.28a.93.93,0,0,0-.27.65v2.91h0l-14.15,3.63,11.18-11.15a1,1,0,0,0,.27-.62l.26-6.38a.9.9,0,0,0-.07-.39l-1.78-4.36a3.59,3.59,0,0,0-3.32-2.22h-3.15a3.59,3.59,0,0,1-3.59-3.59,2.67,2.67,0,0,1,.78-1.88l4.06-4.06a2.64,2.64,0,0,0,0-3.75l-1-1a2.63,2.63,0,0,1-.78-1.88v-1.15a2.66,2.66,0,0,1,2.66-2.66,2.66,2.66,0,0,0,2.66-2.66v-7.54a6.84,6.84,0,0,1,2-4.83l1.52-1.5a4.16,4.16,0,0,0,1.22-2.94v-3a4.17,4.17,0,0,0-1.21-2.93l-.45-.45a4.14,4.14,0,0,1,0-5.87,4.13,4.13,0,0,0,1.22-2.94v-2a4.12,4.12,0,0,0-1.22-2.93l-6-5.95a4.67,4.67,0,0,1,0-6.6l2.55-2.54a4.65,4.65,0,0,0-1.7-7.67l-9.36-3.38V114H271a1.5,1.5,0,0,1,1,.43l30.39,30.79a1.22,1.22,0,0,1,.32.59l5.5,24.24A1.2,1.2,0,0,1,308.22,170.57Z"/><path class="cls-2" d="M98.15,529.37a46.76,46.76,0,0,1,11.74,1.37,43.17,43.17,0,0,1,8.7,3.09c2.25,1.14,3.63,2.14,4.12,3q-3.54,1.17-6.16,7.74a111.49,111.49,0,0,0-4.68,15.29,99.75,99.75,0,0,0,10.44-11.37q3.78-4.5,7.7-8.87a66.62,66.62,0,0,1,7.55-7.3c2.41-2,4.54-2.94,6.37-2.94a9.85,9.85,0,0,1,5.51,1.35,7.44,7.44,0,0,1,2.89,3.4,10,10,0,0,1,.76,4.36,12.1,12.1,0,0,1-.93,4.29,9.49,9.49,0,0,1-2.11,3.21q-4.37-3.72-8.92-2.6a21.93,21.93,0,0,0-8.92,4.88,100,100,0,0,0-8.18,7.87c-1.77,1.89-3.4,3.53-4.9,4.9a11.6,11.6,0,0,1-4,2.6q6.81,1.32,9.51,5.19a16.87,16.87,0,0,1,2.91,9.09,75.08,75.08,0,0,1-.32,10.66c-.23,2.39-.36,4.67-.41,6.84a19.81,19.81,0,0,0,.63,5.78,7.39,7.39,0,0,0,2.65,4,9.34,9.34,0,0,0,5.71,1.47,11.9,11.9,0,0,1-1.94,6.61,16.12,16.12,0,0,1-4.7,4.81,11.11,11.11,0,0,1-5.47,2,19,19,0,0,1-5.46-.81,13.73,13.73,0,0,1-4.93-2.65,13.1,13.1,0,0,1-3.55-4.9,18.75,18.75,0,0,1-1.35-7.57,55.32,55.32,0,0,1,1-10c.63-3.33,1.33-6.5,2.08-9.51a56.4,56.4,0,0,0,2.06-11.49q.19-4.49-3.77-4.68-1.23,5.38-2.41,9.95-1.51,5.73-4.16,12.79a77.4,77.4,0,0,1-6.72,13.6,39.19,39.19,0,0,1-9.77,10.81A22.44,22.44,0,0,1,73.45,620a27,27,0,0,1-8.7-1.55A24.23,24.23,0,0,1,57,614.06a22,22,0,0,1-5.59-7.3,22.92,22.92,0,0,1-2.1-10,21.61,21.61,0,0,1,2.1-9.63,22.32,22.32,0,0,1,5.49-7.18,20.67,20.67,0,0,1,7.38-4.12,16.22,16.22,0,0,1,7.89-.49,13.34,13.34,0,0,1,7,3.77,6.24,6.24,0,0,0-4.09,1.6,13.45,13.45,0,0,0-3.21,4.09A18.68,18.68,0,0,0,70,590a13.89,13.89,0,0,0,0,5.3,7.43,7.43,0,0,0,2.28,4.09,7.3,7.3,0,0,0,5,1.59,8.42,8.42,0,0,0,5.73-2.52,29.9,29.9,0,0,0,5.2-6.57,74.7,74.7,0,0,0,4.51-8.75q2.05-4.71,3.68-9.21T99.13,566c.2-.69.41-1.41.64-2.16q2.1-7,4.9-14.31a41.79,41.79,0,0,1,6.52-11.86,29.3,29.3,0,0,0-4.32-.34A27,27,0,0,0,96,539.22a15.34,15.34,0,0,0-6.23,4.58,9.37,9.37,0,0,0-2.08,5.44,6.53,6.53,0,0,0,1.64,4.61,6.21,6.21,0,0,0,4.88,1.88A4.61,4.61,0,0,1,92,559.36a18.56,18.56,0,0,1-5.42,2.7,20,20,0,0,1-6.12,1,11.17,11.17,0,0,1-5.83-1.6,12,12,0,0,1-4.34-4.43,12.76,12.76,0,0,1-1.64-6.52,16.56,16.56,0,0,1,3.92-10.81,26.71,26.71,0,0,1,10.61-7.57A38.55,38.55,0,0,1,98.15,529.37Z"/><path class="cls-2" d="M149.12,565.29a10.2,10.2,0,0,1,4.34,1.15,13,13,0,0,1,4.09,3.09,6.29,6.29,0,0,1,1.72,4.29,19.66,19.66,0,0,1-.79,5.22q-.78,2.87-1.86,6.15Q155.2,589.36,154,594a38.4,38.4,0,0,0-1.2,9.58,16.05,16.05,0,0,0,.37,3.68,24.07,24.07,0,0,0,.76,2.69,5.79,5.79,0,0,1,.46,2c0,.45-.45.67-1.3.67q-5.64,0-8.7-1.77a9.88,9.88,0,0,1-4.31-4.58,16.23,16.23,0,0,1-1.35-6.1,41.07,41.07,0,0,1,1.37-9.83q1.38-5.46,2.94-10.66c.76-2.55,1.4-4.86,1.94-6.93a20.88,20.88,0,0,0,.81-4.93,2.13,2.13,0,0,1,1-2A4.49,4.49,0,0,1,149.12,565.29Zm6.72-17.49a7.07,7.07,0,0,1,5.24,2.18,7.36,7.36,0,1,1-5.24-2.18Z"/><path class="cls-2" d="M170.15,565.19a10.1,10.1,0,0,1,4.38,1.16,12.87,12.87,0,0,1,4.1,3.08,6.39,6.39,0,0,1,1.71,4.34,15.15,15.15,0,0,1-.24,2.6,33.18,33.18,0,0,1,5-5.74,22.65,22.65,0,0,1,6-3.94,17.52,17.52,0,0,1,7.11-1.45,9.09,9.09,0,0,1,6.35,2.16,8.05,8.05,0,0,1,2.37,6.27,22.63,22.63,0,0,1-1.1,6.1c-.7,2.31-1.53,4.75-2.47,7.33q-1.62,4.26-2.87,8.51a31.17,31.17,0,0,0-1.35,7.84,9.25,9.25,0,0,0,1.77,6c.26.39,0,.82-.91,1.27a15.16,15.16,0,0,1-3.28,1.2,13.83,13.83,0,0,1-3.46.52,25.07,25.07,0,0,1-3.21-.24,10.62,10.62,0,0,1-3.58-1.18,7.6,7.6,0,0,1-2.91-2.89,10.44,10.44,0,0,1-1.18-5.39,20.68,20.68,0,0,1,1.64-7.26q1.65-4.21,3.6-8.48,1.62-3.57,2.77-6.54a15.88,15.88,0,0,0,1.23-4.8c.05-1.23-.52-1.84-1.69-1.84q-2.75,0-6.08,5.34A60.1,60.1,0,0,0,178,592.59a74,74,0,0,0-3.26,16.62,5.18,5.18,0,0,0,.3,1.86,2.63,2.63,0,0,1,.12,1.1c0,.25-.38.37-1,.37q-5.68,0-8.73-1.77a10,10,0,0,1-4.29-4.55,15.89,15.89,0,0,1-1.34-6.08,42.12,42.12,0,0,1,1.34-9.88q1.35-5.46,2.92-10.66c.78-2.55,1.45-4.85,2-6.91a20.94,20.94,0,0,0,.8-4.9,2.17,2.17,0,0,1,.94-2A4.33,4.33,0,0,1,170.15,565.19Z"/><path class="cls-2" d="M248.57,565.29a8.33,8.33,0,0,1,5.24,2c1.44,1.25,2.16,2.26,2.16,3-2.62,1.14-4.8,4-6.55,8.67a157.71,157.71,0,0,0-5.07,16.72q-1.86,7.24-4.26,14.85-1.34,4.41-3.14,8.89a37,37,0,0,1-4.61,8.26,20.43,20.43,0,0,1-17.54,8.43,12.15,12.15,0,0,1-10.83-6,10.28,10.28,0,0,1-1.52-5.29,12.66,12.66,0,0,1,.85-4.95,10.38,10.38,0,0,1,2.11-3.26,11.44,11.44,0,0,1,2.5-1.94,14.25,14.25,0,0,1,3-1.17,14.72,14.72,0,0,0-.13,2.79,6.57,6.57,0,0,0,.62,2.35,4.7,4.7,0,0,0,1.76,2,6.31,6.31,0,0,0,3.48.81,8.89,8.89,0,0,0,6-2.16,19.31,19.31,0,0,0,4.28-5.29,35.81,35.81,0,0,0,2.82-6.28,70.6,70.6,0,0,0,2-7.44,42.87,42.87,0,0,1-4.07,6.27,21.69,21.69,0,0,1-4.63,4.46,8.63,8.63,0,0,1-4.93,1.66,12.06,12.06,0,0,1-5.12-1.17,9.71,9.71,0,0,1-4.19-4,14.92,14.92,0,0,1-1.67-7.65,45.69,45.69,0,0,1,.81-7.94,51.69,51.69,0,0,1,2.55-9.11,39.08,39.08,0,0,1,4.48-8.55,23.23,23.23,0,0,1,6.57-6.4,16,16,0,0,1,8.87-2.45,13.56,13.56,0,0,1,4.83,1.27,9.59,9.59,0,0,1,4.29,3,6.16,6.16,0,0,1,2.57-3.18,8.59,8.59,0,0,1,3.56-1.16C246.82,565.35,247.81,565.29,248.57,565.29Zm-14,10.64a5.69,5.69,0,0,0-4.29,2.4,24.14,24.14,0,0,0-3.58,5.88,40.73,40.73,0,0,0-2.38,6.94,20.38,20.38,0,0,0-.68,5.85c.1,1.6.6,2.4,1.52,2.4s1.91-.85,2.89-2.54a42.73,42.73,0,0,0,2.91-6.45c1-2.6,1.92-5.33,2.87-8.21.69-2,1.36-4,2-5.83A1.8,1.8,0,0,0,234.6,575.93Z"/><path class="cls-2" d="M267,549.49a5.88,5.88,0,0,1,1.22,4.11,10.59,10.59,0,0,1-1.54,4.86,12.66,12.66,0,0,1-3.95,4.11,10.49,10.49,0,0,1-6,1.69,16.3,16.3,0,0,0,1.59-1.74,14.75,14.75,0,0,0,1.65-2.47,5.62,5.62,0,0,0,.73-2.65,3.49,3.49,0,0,1-3.06-1.42,4.73,4.73,0,0,1-.84-3.26,5.3,5.3,0,0,1,1.62-3.28,6.4,6.4,0,0,1,4.24-1.64A5.22,5.22,0,0,1,267,549.49Z"/><path class="cls-2" d="M295.81,580.63a6.65,6.65,0,0,0,.3-3.26,6.32,6.32,0,0,0-1.45-3.26,4.4,4.4,0,0,0-3.55-1.42,4,4,0,0,0-3,1.23,4.26,4.26,0,0,0-1.18,3.09,6.94,6.94,0,0,0,1.57,4.46,38.5,38.5,0,0,0,3.73,4c1.2,1.14,2.4,2.39,3.57,3.74a18.62,18.62,0,0,1,2.94,4.66,14.83,14.83,0,0,1,1.18,6.15,13,13,0,0,1-1.67,6.67,15.47,15.47,0,0,1-4.26,4.73,19.48,19.48,0,0,1-5.59,2.82,18.82,18.82,0,0,1-5.58.93,23.76,23.76,0,0,1-8.51-1.5,14.47,14.47,0,0,1-6.34-4.51,12,12,0,0,1-2.41-7.72,12.65,12.65,0,0,1,1.43-6.2,10.87,10.87,0,0,1,3.57-4A10.21,10.21,0,0,1,275,589.6a6.43,6.43,0,0,1,4,.79,5.22,5.22,0,0,0-1.64,2.81,7.52,7.52,0,0,0,0,3.56,6.4,6.4,0,0,0,1.72,3.08,4.67,4.67,0,0,0,3.48,1.28,4.24,4.24,0,0,0,2.74-.83,4.65,4.65,0,0,0,1.47-2,6.22,6.22,0,0,0,.45-2.21,7.57,7.57,0,0,0-.79-3.36,14.66,14.66,0,0,0-2.06-3.08c-.85-1-1.76-2-2.74-3s-2.11-2.21-3.09-3.4a19,19,0,0,1-2.45-3.83,10.21,10.21,0,0,1-1-4.48,13.18,13.18,0,0,1,1.42-5.88,11.54,11.54,0,0,1,4.66-4.81,17,17,0,0,1,8.67-1.91,17.47,17.47,0,0,1,7.77,1.67,13.81,13.81,0,0,1,5.34,4.39,10,10,0,0,1,1.94,5.9,11,11,0,0,1-1.1,5.32,7.53,7.53,0,0,1-2.7,2.92,7.37,7.37,0,0,1-3.19,1,6.06,6.06,0,0,1-2.69-.32c-.74-.29-1.1-.69-1.1-1.18C294.9,582.05,295.45,581.58,295.81,580.63Z"/><path class="cls-2" d="M107.9,632a40.31,40.31,0,0,1,9.91,1.14,35.36,35.36,0,0,1,7.34,2.61c1.9,1,3.06,1.82,3.47,2.54-1.38.41-2.62,1.61-3.74,3.6a38.32,38.32,0,0,0-3.06,7.42q-1.39,4.45-2.59,9.46a14.72,14.72,0,0,1,3.27-.42,8.36,8.36,0,0,1,4,.85,6.26,6.26,0,0,1,2.42,2.17q2.33-5.67,4.94-10.92a91,91,0,0,1,5.38-9.39,36.05,36.05,0,0,1,5.46-6.6q2.72-2.46,5.11-2.46a5.84,5.84,0,0,1,3.41.93c.9.62,1.35,1.2,1.35,1.72a42.94,42.94,0,0,0-9.37,13.82,88.12,88.12,0,0,0-5.69,17.14,68.4,68.4,0,0,0-1.9,14,31,31,0,0,0,1.09,9.31,9.51,9.51,0,0,0,2.8,4.63,5.51,5.51,0,0,0,3.39,1.32q-.21,1.29-2.28,3a20.44,20.44,0,0,1-5.08,3,15,15,0,0,1-6,1.31,10.85,10.85,0,0,1-7.74-2.69c-1.9-1.79-2.88-4.72-2.93-8.77q.17-6.91,4.38-19.57a6.84,6.84,0,0,1-2.31.46,3.87,3.87,0,0,0,1-2,3.58,3.58,0,0,0-.15-2.17,1.68,1.68,0,0,0-1.59-1,15.44,15.44,0,0,0-5.13,1.36c-.47,2-.93,3.89-1.4,5.63a107.35,107.35,0,0,1-3.48,10.79,65.41,65.41,0,0,1-5.66,11.48,32.87,32.87,0,0,1-8.26,9.12,18.92,18.92,0,0,1-11.23,3.73,23,23,0,0,1-7.36-1.31,20.86,20.86,0,0,1-6.55-3.74,18.25,18.25,0,0,1-4.74-6.16,19.25,19.25,0,0,1-1.78-8.48,18.11,18.11,0,0,1,1.78-8.13,18.73,18.73,0,0,1,4.63-6.06,17.66,17.66,0,0,1,6.23-3.5,13.4,13.4,0,0,1,6.66-.41,11.57,11.57,0,0,1,5.89,3.16,5.2,5.2,0,0,0-3.45,1.37,11.39,11.39,0,0,0-2.69,3.47,16,16,0,0,0-1.53,4.47,11.58,11.58,0,0,0,0,4.47,6.2,6.2,0,0,0,1.92,3.45,6.06,6.06,0,0,0,4.22,1.35,6.91,6.91,0,0,0,4.51-1.84,22.11,22.11,0,0,0,4.09-4.86,56.82,56.82,0,0,0,3.64-6.64q1.69-3.63,3.06-7.26a8.32,8.32,0,0,1-1.07.08,4.9,4.9,0,0,1-3.33-1.2,8,8,0,0,1-2.15-3.12,10.92,10.92,0,0,1-.77-4.08,11.45,11.45,0,0,0,4.84,0A47.1,47.1,0,0,0,109,662c.08-.28.18-.55.29-.83q1.72-5.91,4.09-12.1a35.64,35.64,0,0,1,5.5-10,24.35,24.35,0,0,0-3.6-.28,22.84,22.84,0,0,0-9.18,1.57,12.75,12.75,0,0,0-5.25,3.86,8.11,8.11,0,0,0-1.76,4.6,5.31,5.31,0,0,0,1.39,3.88,5.22,5.22,0,0,0,4.09,1.6,3.92,3.92,0,0,1-1.86,3.06,15.26,15.26,0,0,1-4.57,2.27,16.86,16.86,0,0,1-5.15.87,9.44,9.44,0,0,1-5-1.36,10.16,10.16,0,0,1-3.64-3.75A10.79,10.79,0,0,1,83,649.89a14.07,14.07,0,0,1,3.29-9.12,22.33,22.33,0,0,1,8.93-6.39A32.58,32.58,0,0,1,107.9,632Z"/><path class="cls-2" d="M165.81,661.43a8.54,8.54,0,0,1,7.24,3.48q2.59,3.47,2.6,9.72a36.45,36.45,0,0,1-.72,6.78,44.46,44.46,0,0,1-2.17,7.53,36.4,36.4,0,0,1-3.54,6.93A19.08,19.08,0,0,1,164.4,701a10.21,10.21,0,0,1-6,1.94,12.24,12.24,0,0,1-5.89-1.41,10.11,10.11,0,0,1-4.18-4.28,15.19,15.19,0,0,1-1.55-7.26,35.5,35.5,0,0,1,1.41-9.66,38,38,0,0,1,3.95-9.26,24,24,0,0,1,6-6.95A12.37,12.37,0,0,1,165.81,661.43Zm1.45,8.65c-1,0-2.08.71-3.09,2.15a22.49,22.49,0,0,0-2.64,5.29,33.28,33.28,0,0,0-1.62,6.27,15,15,0,0,0,0,5.29c.32,1.45,1.07,2.18,2.26,2.18.69,0,1.45-.52,2.27-1.56a20,20,0,0,0,2.38-4,36.13,36.13,0,0,0,2-5.08,27,27,0,0,0,1-5.09,9.28,9.28,0,0,0-.33-4A2.15,2.15,0,0,0,167.26,670.08Z"/><path class="cls-2" d="M185.29,662.26a8.78,8.78,0,0,1,3.7,1,10.48,10.48,0,0,1,3.43,2.59,5.39,5.39,0,0,1,1.43,3.66,21,21,0,0,1-1,5.39q-1,3.46-2.28,7.26c-.71,2.15-1.35,4.18-1.9,6.06a27.19,27.19,0,0,0-1,4.62q-.19,1.77.72,1.77c1.16,0,2.38-.72,3.66-2.17A35,35,0,0,0,195.9,687c1.28-2.17,2.48-4.45,3.6-6.82s2.09-4.52,2.91-6.45q.92-3,1.53-5.4a16.1,16.1,0,0,0,.62-3.87,1.79,1.79,0,0,1,.79-1.67,3.76,3.76,0,0,1,2-.48,8.78,8.78,0,0,1,3.7,1,10.66,10.66,0,0,1,3.45,2.59,5.36,5.36,0,0,1,1.45,3.66,16.84,16.84,0,0,1-.66,4.4q-.66,2.42-1.62,5.15-1.16,3.56-2.19,7.49a31.53,31.53,0,0,0-1,8.06,13.24,13.24,0,0,0,.33,3.13c.22.89.43,1.65.62,2.25a5.14,5.14,0,0,1,.39,1.7q0,.54-1.05.54a15,15,0,0,1-7.39-1.49,8.29,8.29,0,0,1-3.61-3.85,14.16,14.16,0,0,1-1.16-5.13,12.07,12.07,0,0,1,.08-1.45,41.72,41.72,0,0,1-3.52,6,18.9,18.9,0,0,1-4,4.28,7.13,7.13,0,0,1-4.34,1.6c-3.42,0-6-.92-7.69-2.74s-2.57-4.39-2.57-7.73a34.61,34.61,0,0,1,1.16-8.33c.77-3.08,1.6-6.06,2.48-9,.63-2.15,1.18-4.1,1.63-5.85a17.44,17.44,0,0,0,.69-4.16,1.78,1.78,0,0,1,.8-1.67A3.88,3.88,0,0,1,185.29,662.26Z"/><path class="cls-2" d="M240.1,675.29a5.61,5.61,0,0,0,.24-2.75,5.14,5.14,0,0,0-1.22-2.75,3.69,3.69,0,0,0-3-1.2,3.39,3.39,0,0,0-2.56,1,3.62,3.62,0,0,0-1,2.61,5.87,5.87,0,0,0,1.32,3.76,31.9,31.9,0,0,0,3.14,3.35c1,1,2,2,3,3.17a15.74,15.74,0,0,1,2.49,3.93,12.58,12.58,0,0,1,1,5.19,10.88,10.88,0,0,1-1.41,5.62,12.89,12.89,0,0,1-3.6,4,16.72,16.72,0,0,1-9.43,3.17,20.09,20.09,0,0,1-7.17-1.26,12.18,12.18,0,0,1-5.36-3.81,10.13,10.13,0,0,1-2-6.51,10.71,10.71,0,0,1,1.2-5.24,9.29,9.29,0,0,1,3-3.35,8.63,8.63,0,0,1,3.75-1.38,5.42,5.42,0,0,1,3.41.66,4.51,4.51,0,0,0-1.39,2.38,6.34,6.34,0,0,0,0,3,5.37,5.37,0,0,0,1.45,2.6,4,4,0,0,0,2.94,1.08,3.61,3.61,0,0,0,2.31-.7,3.89,3.89,0,0,0,1.24-1.7,5.28,5.28,0,0,0,.38-1.86,6.4,6.4,0,0,0-.66-2.84,13.41,13.41,0,0,0-1.74-2.6c-.72-.84-1.49-1.69-2.32-2.54a37.53,37.53,0,0,1-2.6-2.88,15.82,15.82,0,0,1-2.07-3.23,8.59,8.59,0,0,1-.83-3.78,11.11,11.11,0,0,1,1.2-5,9.73,9.73,0,0,1,3.93-4.06,14.39,14.39,0,0,1,7.32-1.61,14.74,14.74,0,0,1,6.56,1.41,11.7,11.7,0,0,1,4.51,3.7,8.47,8.47,0,0,1,1.63,5,9.26,9.26,0,0,1-.93,4.49,6.21,6.21,0,0,1-5,3.35,5,5,0,0,1-2.27-.27q-.93-.37-.93-1Q239.64,676.49,240.1,675.29Z"/><path class="cls-2" d="M268,662.34a9,9,0,0,1,4.46,1.12,7.87,7.87,0,0,1,3.15,3.35,12.17,12.17,0,0,1,1.15,5.62,14.94,14.94,0,0,1-1.79,6.66,18.34,18.34,0,0,1-5.51,6.35,21.07,21.07,0,0,1-9.28,3.75,6,6,0,0,0,2.36,3,8.11,8.11,0,0,0,4.63,1.15,8.54,8.54,0,0,0,3.56-.74,27.25,27.25,0,0,0,2.93-1.53,16.08,16.08,0,0,1,1.72-.89,1.35,1.35,0,0,1,1.14-.1c.41.3.24,1.07-.52,2.31a20.88,20.88,0,0,1-3.58,4.14,25.33,25.33,0,0,1-5.79,4,15.29,15.29,0,0,1-7.11,1.72,13,13,0,0,1-4.28-.77,12.49,12.49,0,0,1-7.28-6.68,14.6,14.6,0,0,1-1.22-6.28,28.14,28.14,0,0,1,2-11,27.32,27.32,0,0,1,5.28-8.23,24,24,0,0,1,6.92-5.17A16.34,16.34,0,0,1,268,662.34Zm.41,8.94q-2,0-4,2.29a19.27,19.27,0,0,0-3.37,5.63,18.13,18.13,0,0,0-1.39,6.6,17.39,17.39,0,0,0,6.35-5.3,18.46,18.46,0,0,0,3.23-6.31Q270,671.28,268.43,671.28Z"/><path class="cls-3" d="M103,523.42a47.22,47.22,0,0,1,11.74,1.37,43.79,43.79,0,0,1,8.7,3.09q3.38,1.71,4.11,3-3.52,1.17-6.15,7.74a108.77,108.77,0,0,0-4.68,15.29,99.75,99.75,0,0,0,10.44-11.37q3.78-4.5,7.7-8.87a67.44,67.44,0,0,1,7.54-7.3q3.63-2.94,6.38-2.94a9.85,9.85,0,0,1,5.51,1.35,7.44,7.44,0,0,1,2.89,3.4,10,10,0,0,1,.76,4.36,12.32,12.32,0,0,1-.93,4.29,9.39,9.39,0,0,1-2.11,3.21q-4.37-3.72-8.92-2.6a21.93,21.93,0,0,0-8.92,4.88,100,100,0,0,0-8.18,7.87c-1.77,1.89-3.4,3.53-4.9,4.9a11.6,11.6,0,0,1-4,2.6q6.81,1.32,9.5,5.19a16.79,16.79,0,0,1,2.92,9.09,75.08,75.08,0,0,1-.32,10.66q-.34,3.58-.41,6.84a19.81,19.81,0,0,0,.63,5.78,7.39,7.39,0,0,0,2.65,4,9.34,9.34,0,0,0,5.71,1.47,11.9,11.9,0,0,1-1.94,6.61,16.12,16.12,0,0,1-4.7,4.81,11.11,11.11,0,0,1-5.47,2,19,19,0,0,1-5.46-.81,13.73,13.73,0,0,1-4.93-2.65,13.1,13.1,0,0,1-3.55-4.9,18.75,18.75,0,0,1-1.35-7.57,55.32,55.32,0,0,1,1-9.95c.63-3.33,1.33-6.5,2.08-9.51a56.4,56.4,0,0,0,2.06-11.49q.19-4.49-3.78-4.68-1.22,5.38-2.4,10-1.52,5.73-4.16,12.79a77.4,77.4,0,0,1-6.72,13.6,38.92,38.92,0,0,1-9.78,10.81,22.39,22.39,0,0,1-13.3,4.41,27,27,0,0,1-8.7-1.55,24.23,24.23,0,0,1-7.77-4.43,21.91,21.91,0,0,1-5.59-7.3,22.92,22.92,0,0,1-2.1-10,21.61,21.61,0,0,1,2.1-9.63A22.32,22.32,0,0,1,61.76,574a20.58,20.58,0,0,1,7.38-4.12,16.22,16.22,0,0,1,7.89-.49,13.33,13.33,0,0,1,7,3.78,6.23,6.23,0,0,0-4.09,1.59,13.45,13.45,0,0,0-3.21,4.09,18.68,18.68,0,0,0-1.84,5.29,13.89,13.89,0,0,0,0,5.3,7.43,7.43,0,0,0,2.28,4.09,7.3,7.3,0,0,0,5,1.59,8.42,8.42,0,0,0,5.73-2.52,30,30,0,0,0,5.2-6.57,73.92,73.92,0,0,0,4.51-8.75q2.06-4.71,3.67-9.21c1.08-3,2-5.65,2.7-7.94.2-.69.41-1.41.64-2.16q2.1-7,4.9-14.31a41.79,41.79,0,0,1,6.52-11.86,29.3,29.3,0,0,0-4.32-.34,27,27,0,0,0-10.85,1.86,15.34,15.34,0,0,0-6.23,4.58,9.39,9.39,0,0,0-2.08,5.44,6.49,6.49,0,0,0,1.64,4.61,6.21,6.21,0,0,0,4.88,1.89,4.64,4.64,0,0,1-2.23,3.62,18.56,18.56,0,0,1-5.42,2.7,20,20,0,0,1-6.12,1,11.21,11.21,0,0,1-5.84-1.6,12,12,0,0,1-4.33-4.43,12.77,12.77,0,0,1-1.65-6.52,16.57,16.57,0,0,1,3.93-10.81,26.71,26.71,0,0,1,10.61-7.57A38.55,38.55,0,0,1,103,523.42Z"/><path class="cls-3" d="M154,559.34a10.2,10.2,0,0,1,4.34,1.15,13,13,0,0,1,4.09,3.09,6.34,6.34,0,0,1,1.72,4.29,20.07,20.07,0,0,1-.79,5.22q-.78,2.86-1.86,6.15-1.42,4.17-2.62,8.85a38.4,38.4,0,0,0-1.2,9.58,16.68,16.68,0,0,0,.36,3.68c.25,1,.5,1.94.76,2.69a5.66,5.66,0,0,1,.47,2c0,.44-.45.66-1.3.66q-5.64,0-8.7-1.77a9.88,9.88,0,0,1-4.31-4.58,16.23,16.23,0,0,1-1.35-6.1,41.07,41.07,0,0,1,1.37-9.83q1.38-5.46,2.94-10.66c.76-2.55,1.4-4.86,1.94-6.93a20.88,20.88,0,0,0,.81-4.93,2.13,2.13,0,0,1,1-2A4.49,4.49,0,0,1,154,559.34Zm6.72-17.49A7.46,7.46,0,1,1,155.5,544,7.08,7.08,0,0,1,160.72,541.85Z"/><path class="cls-3" d="M175,559.25a10.08,10.08,0,0,1,4.38,1.15,13,13,0,0,1,4.1,3.08,6.41,6.41,0,0,1,1.71,4.34,15.06,15.06,0,0,1-.24,2.6,33.18,33.18,0,0,1,5-5.74,22.49,22.49,0,0,1,6.05-3.94,17.52,17.52,0,0,1,7.11-1.45,9.09,9.09,0,0,1,6.35,2.16,8.05,8.05,0,0,1,2.37,6.27,22.76,22.76,0,0,1-1.1,6.11c-.7,2.3-1.53,4.74-2.47,7.32-1.08,2.85-2,5.68-2.87,8.51a30.73,30.73,0,0,0-1.35,7.84,9.24,9.24,0,0,0,1.76,6c.27.39,0,.82-.9,1.28a16.18,16.18,0,0,1-3.29,1.2,14.1,14.1,0,0,1-3.45.51,25.07,25.07,0,0,1-3.21-.24,10.62,10.62,0,0,1-3.58-1.18,7.62,7.62,0,0,1-2.92-2.89,10.54,10.54,0,0,1-1.17-5.39,20.68,20.68,0,0,1,1.64-7.26c1.09-2.81,2.3-5.63,3.6-8.48q1.62-3.57,2.77-6.54a15.88,15.88,0,0,0,1.23-4.8c.05-1.23-.52-1.84-1.69-1.84q-2.74,0-6.08,5.34a60.1,60.1,0,0,0-5.91,13.38,74,74,0,0,0-3.26,16.62,5.18,5.18,0,0,0,.3,1.86,2.63,2.63,0,0,1,.12,1.1c-.05.25-.38.37-1,.37-3.8,0-6.7-.59-8.73-1.76a10.09,10.09,0,0,1-4.29-4.56,15.89,15.89,0,0,1-1.34-6.08,41.6,41.6,0,0,1,1.34-9.88q1.35-5.46,2.92-10.66c.78-2.54,1.45-4.85,2-6.91a20.53,20.53,0,0,0,.81-4.9,2.19,2.19,0,0,1,.93-2A4.37,4.37,0,0,1,175,559.25Z"/><path class="cls-3" d="M253.44,559.34a8.34,8.34,0,0,1,5.25,2c1.44,1.26,2.15,2.26,2.15,3q-3.91,1.73-6.54,8.68a154.46,154.46,0,0,0-5.07,16.71Q247.37,597,245,604.63q-1.33,4.41-3.14,8.89a37.36,37.36,0,0,1-4.61,8.26,20.36,20.36,0,0,1-17.54,8.43,12.18,12.18,0,0,1-10.84-6,10.38,10.38,0,0,1-1.52-5.29,12.65,12.65,0,0,1,.86-5,10.21,10.21,0,0,1,2.11-3.26,11.08,11.08,0,0,1,2.5-1.93,14.24,14.24,0,0,1,3-1.18,14.72,14.72,0,0,0-.13,2.79,6.55,6.55,0,0,0,.61,2.35,4.73,4.73,0,0,0,1.77,2,6.31,6.31,0,0,0,3.48.81,8.84,8.84,0,0,0,5.95-2.16,19.16,19.16,0,0,0,4.29-5.29,36.06,36.06,0,0,0,2.82-6.27,73.38,73.38,0,0,0,2-7.45,42.87,42.87,0,0,1-4.07,6.27,21.69,21.69,0,0,1-4.63,4.46,8.65,8.65,0,0,1-4.93,1.67,12.07,12.07,0,0,1-5.12-1.18,9.65,9.65,0,0,1-4.19-4,14.92,14.92,0,0,1-1.67-7.65,45.69,45.69,0,0,1,.81-7.94,51.69,51.69,0,0,1,2.55-9.11,39.08,39.08,0,0,1,4.48-8.55,23.23,23.23,0,0,1,6.57-6.4,16.12,16.12,0,0,1,8.87-2.45,13.56,13.56,0,0,1,4.83,1.27,9.59,9.59,0,0,1,4.29,3,6.12,6.12,0,0,1,2.57-3.18,8.59,8.59,0,0,1,3.55-1.16C251.7,559.4,252.69,559.34,253.44,559.34Zm-14,10.64a5.69,5.69,0,0,0-4.29,2.4,24.14,24.14,0,0,0-3.58,5.88,40.73,40.73,0,0,0-2.38,6.94,20.38,20.38,0,0,0-.68,5.85c.09,1.6.6,2.4,1.52,2.4s1.91-.84,2.89-2.54a42.73,42.73,0,0,0,2.91-6.45c1-2.6,1.92-5.33,2.87-8.21.69-2,1.36-4,2-5.83A1.85,1.85,0,0,0,239.48,570Z"/><path class="cls-3" d="M271.9,543.54a5.88,5.88,0,0,1,1.22,4.11,10.59,10.59,0,0,1-1.54,4.86,12.56,12.56,0,0,1-3.95,4.11,10.49,10.49,0,0,1-6,1.69,16.3,16.3,0,0,0,1.59-1.74,14.72,14.72,0,0,0,1.64-2.47,5.64,5.64,0,0,0,.74-2.65,3.49,3.49,0,0,1-3.06-1.42,4.73,4.73,0,0,1-.84-3.26,5.3,5.3,0,0,1,1.62-3.28,6.38,6.38,0,0,1,4.24-1.64A5.22,5.22,0,0,1,271.9,543.54Z"/><path class="cls-3" d="M300.69,574.68a6.65,6.65,0,0,0,.3-3.26,6.25,6.25,0,0,0-1.45-3.25,4.39,4.39,0,0,0-3.55-1.43,4,4,0,0,0-3,1.23,4.27,4.27,0,0,0-1.18,3.09,6.94,6.94,0,0,0,1.57,4.46,38.34,38.34,0,0,0,3.72,4,49.56,49.56,0,0,1,3.58,3.75,18.38,18.38,0,0,1,2.94,4.65,14.83,14.83,0,0,1,1.18,6.15,13,13,0,0,1-1.67,6.67,15.47,15.47,0,0,1-4.26,4.73,19.11,19.11,0,0,1-5.59,2.82,18.83,18.83,0,0,1-5.59.93,23.74,23.74,0,0,1-8.5-1.5,14.42,14.42,0,0,1-6.35-4.51,12,12,0,0,1-2.4-7.72,12.76,12.76,0,0,1,1.42-6.2,11,11,0,0,1,3.58-4,10.21,10.21,0,0,1,4.44-1.64,6.44,6.44,0,0,1,4,.79,5.24,5.24,0,0,0-1.64,2.82,7.48,7.48,0,0,0,0,3.55A6.48,6.48,0,0,0,284,593.9a4.7,4.7,0,0,0,3.48,1.27,4.24,4.24,0,0,0,2.74-.83,4.65,4.65,0,0,0,1.47-2,6.2,6.2,0,0,0,.44-2.21,7.59,7.59,0,0,0-.78-3.36,14.66,14.66,0,0,0-2.06-3.08c-.85-1-1.76-2-2.74-3s-2.11-2.21-3.09-3.4a19,19,0,0,1-2.45-3.83,10.21,10.21,0,0,1-1-4.48,13.18,13.18,0,0,1,1.42-5.88,11.54,11.54,0,0,1,4.66-4.81,17,17,0,0,1,8.67-1.91,17.47,17.47,0,0,1,7.77,1.67,13.81,13.81,0,0,1,5.34,4.39,10,10,0,0,1,1.94,5.9,10.9,10.9,0,0,1-1.11,5.32,7.29,7.29,0,0,1-5.88,4,5.92,5.92,0,0,1-2.69-.32c-.74-.29-1.1-.69-1.1-1.18C299.78,576.1,300.33,575.63,300.69,574.68Z"/><path class="cls-3" d="M112.78,626.08a40.82,40.82,0,0,1,9.91,1.13,35.36,35.36,0,0,1,7.34,2.61q2.85,1.47,3.47,2.54c-1.38.42-2.62,1.62-3.74,3.6a38.44,38.44,0,0,0-3.06,7.43q-1.4,4.44-2.59,9.45a14.72,14.72,0,0,1,3.27-.42,8.48,8.48,0,0,1,4,.85,6.26,6.26,0,0,1,2.42,2.17q2.33-5.66,4.94-10.92a91,91,0,0,1,5.38-9.39,36,36,0,0,1,5.46-6.59q2.72-2.46,5.11-2.46a5.84,5.84,0,0,1,3.41.93q1.35.93,1.35,1.71a43.05,43.05,0,0,0-9.37,13.82,88.35,88.35,0,0,0-5.69,17.14,68.49,68.49,0,0,0-1.9,14,31,31,0,0,0,1.09,9.31,9.51,9.51,0,0,0,2.8,4.63,5.47,5.47,0,0,0,3.39,1.33q-.21,1.27-2.28,3a21.06,21.06,0,0,1-5.08,3,15,15,0,0,1-6,1.3,10.85,10.85,0,0,1-7.74-2.69q-2.85-2.69-2.93-8.77.17-6.9,4.38-19.56a7.06,7.06,0,0,1-2.31.45,3.88,3.88,0,0,0,1-2,3.68,3.68,0,0,0-.15-2.18,1.69,1.69,0,0,0-1.59-1,15.68,15.68,0,0,0-5.13,1.36c-.47,2-.93,3.89-1.4,5.63a107.46,107.46,0,0,1-3.48,10.8,65.32,65.32,0,0,1-5.66,11.47,32.77,32.77,0,0,1-8.26,9.13A19,19,0,0,1,92,702.6a23,23,0,0,1-7.36-1.3,21,21,0,0,1-6.56-3.75,18.26,18.26,0,0,1-4.73-6.16,19.22,19.22,0,0,1-1.78-8.48,18.11,18.11,0,0,1,1.78-8.13A18.73,18.73,0,0,1,78,668.72a17.48,17.48,0,0,1,6.23-3.49,13.4,13.4,0,0,1,6.66-.42A11.59,11.59,0,0,1,96.73,668a5.19,5.19,0,0,0-3.45,1.36,11.32,11.32,0,0,0-2.69,3.48,15.81,15.81,0,0,0-1.53,4.46,11.58,11.58,0,0,0,0,4.47A6.17,6.17,0,0,0,91,685.2a6.06,6.06,0,0,0,4.22,1.35,6.86,6.86,0,0,0,4.51-1.84,22.11,22.11,0,0,0,4.09-4.86,56,56,0,0,0,3.64-6.64q1.69-3.62,3.06-7.26a6.84,6.84,0,0,1-1.07.08,4.9,4.9,0,0,1-3.33-1.2,8,8,0,0,1-2.15-3.12,10.91,10.91,0,0,1-.77-4.07,11.47,11.47,0,0,0,4.84,0A45.42,45.42,0,0,0,113.9,656a6.69,6.69,0,0,1,.29-.82q1.73-5.93,4.09-12.1a35.36,35.36,0,0,1,5.5-10,24.42,24.42,0,0,0-3.6-.29,22.84,22.84,0,0,0-9.18,1.57,12.76,12.76,0,0,0-5.25,3.87,8.08,8.08,0,0,0-1.76,4.59,5.33,5.33,0,0,0,1.39,3.89,5.25,5.25,0,0,0,4.09,1.59,3.92,3.92,0,0,1-1.86,3.06,15.27,15.27,0,0,1-4.57,2.28,17.14,17.14,0,0,1-5.15.86,9.44,9.44,0,0,1-5-1.36,10.31,10.31,0,0,1-3.65-3.74,11,11,0,0,1-1.36-5.49,14.07,14.07,0,0,1,3.29-9.12,22.53,22.53,0,0,1,8.93-6.39A32.57,32.57,0,0,1,112.78,626.08Z"/><path class="cls-3" d="M170.69,655.48a8.54,8.54,0,0,1,7.24,3.48q2.59,3.48,2.6,9.72a36.45,36.45,0,0,1-.72,6.78,44.46,44.46,0,0,1-2.17,7.53,36.4,36.4,0,0,1-3.54,6.93,19.08,19.08,0,0,1-4.82,5.11,10.21,10.21,0,0,1-6,1.94,12.35,12.35,0,0,1-5.89-1.4,10.19,10.19,0,0,1-4.18-4.29,15.18,15.18,0,0,1-1.55-7.25,35.39,35.39,0,0,1,1.41-9.66A38.25,38.25,0,0,1,157,665.1a24,24,0,0,1,6-7A12.37,12.37,0,0,1,170.69,655.48Zm1.45,8.65c-1,0-2.08.72-3.09,2.15a22.57,22.57,0,0,0-2.64,5.3,33,33,0,0,0-1.62,6.26,15.1,15.1,0,0,0,0,5.3c.32,1.44,1.07,2.17,2.26,2.17.69,0,1.45-.52,2.27-1.55a20.27,20.27,0,0,0,2.38-4,36.27,36.27,0,0,0,2-5.09,26.88,26.88,0,0,0,1-5.09,9.29,9.29,0,0,0-.33-4A2.16,2.16,0,0,0,172.14,664.13Z"/><path class="cls-3" d="M190.17,656.31a8.78,8.78,0,0,1,3.7,1,10.48,10.48,0,0,1,3.43,2.59,5.39,5.39,0,0,1,1.43,3.66,21,21,0,0,1-1,5.4q-1,3.45-2.28,7.26c-.71,2.15-1.35,4.17-1.9,6.06a27.11,27.11,0,0,0-1,4.61c-.13,1.18.11,1.78.72,1.78,1.16,0,2.38-.73,3.66-2.17a35.52,35.52,0,0,0,3.85-5.44q1.92-3.27,3.6-6.83c1.11-2.37,2.09-4.52,2.91-6.45q.92-3,1.53-5.4a16.1,16.1,0,0,0,.62-3.87,1.8,1.8,0,0,1,.79-1.67,3.76,3.76,0,0,1,2-.48,8.78,8.78,0,0,1,3.7,1,10.66,10.66,0,0,1,3.45,2.59,5.36,5.36,0,0,1,1.45,3.66,16.84,16.84,0,0,1-.66,4.4c-.44,1.62-1,3.33-1.62,5.15-.77,2.38-1.5,4.87-2.19,7.49a31.55,31.55,0,0,0-1,8.07,13.22,13.22,0,0,0,.33,3.12c.22.9.43,1.65.62,2.25a5.19,5.19,0,0,1,.39,1.7q0,.54-1,.54a15,15,0,0,1-7.39-1.49,8.24,8.24,0,0,1-3.61-3.85,14.16,14.16,0,0,1-1.16-5.13,12.07,12.07,0,0,1,.08-1.45,41.72,41.72,0,0,1-3.52,6,19,19,0,0,1-4,4.29,7.12,7.12,0,0,1-4.34,1.59c-3.42,0-6-.91-7.69-2.73s-2.57-4.4-2.57-7.74a34.61,34.61,0,0,1,1.16-8.33c.77-3.08,1.6-6.06,2.48-9,.63-2.15,1.18-4.1,1.63-5.85a17.44,17.44,0,0,0,.69-4.16,1.79,1.79,0,0,1,.8-1.67A3.88,3.88,0,0,1,190.17,656.31Z"/><path class="cls-3" d="M245,669.34a5.6,5.6,0,0,0,.24-2.75,5.17,5.17,0,0,0-1.22-2.75,3.69,3.69,0,0,0-3-1.2,3.4,3.4,0,0,0-2.56,1,3.58,3.58,0,0,0-1,2.6,5.89,5.89,0,0,0,1.32,3.77,32.91,32.91,0,0,0,3.14,3.35,43.62,43.62,0,0,1,3,3.16,15.74,15.74,0,0,1,2.49,3.93,12.58,12.58,0,0,1,1,5.19,10.92,10.92,0,0,1-1.41,5.63,13,13,0,0,1-3.6,4,16.33,16.33,0,0,1-4.71,2.38,16,16,0,0,1-4.72.78,20.09,20.09,0,0,1-7.17-1.26,12.18,12.18,0,0,1-5.36-3.81,10.11,10.11,0,0,1-2-6.51,10.64,10.64,0,0,1,1.2-5.23,9.13,9.13,0,0,1,3-3.35,8.52,8.52,0,0,1,3.75-1.39,5.42,5.42,0,0,1,3.41.66A4.51,4.51,0,0,0,229.4,680a6.34,6.34,0,0,0,0,3,5.44,5.44,0,0,0,1.45,2.61,4,4,0,0,0,2.94,1.07,3.56,3.56,0,0,0,2.31-.7,3.89,3.89,0,0,0,1.24-1.7,5.28,5.28,0,0,0,.38-1.86,6.2,6.2,0,0,0-.67-2.83,12.7,12.7,0,0,0-1.73-2.61c-.72-.84-1.49-1.69-2.32-2.54a37.53,37.53,0,0,1-2.6-2.88,15.75,15.75,0,0,1-2.07-3.22,8.66,8.66,0,0,1-.83-3.79,11.14,11.14,0,0,1,1.2-5,9.73,9.73,0,0,1,3.93-4.06,14.39,14.39,0,0,1,7.32-1.61,14.74,14.74,0,0,1,6.56,1.41A11.79,11.79,0,0,1,251,659a8.47,8.47,0,0,1,1.63,5,9.23,9.23,0,0,1-.93,4.49,6.21,6.21,0,0,1-5,3.35,5,5,0,0,1-2.27-.27q-.93-.36-.93-1Q244.52,670.54,245,669.34Z"/><path class="cls-3" d="M272.9,656.39a9,9,0,0,1,4.46,1.12,7.93,7.93,0,0,1,3.15,3.35,12.21,12.21,0,0,1,1.15,5.63,14.83,14.83,0,0,1-1.8,6.66,18.29,18.29,0,0,1-5.5,6.35,21,21,0,0,1-9.28,3.74,6,6,0,0,0,2.36,3,8.11,8.11,0,0,0,4.63,1.16,8.55,8.55,0,0,0,3.56-.75,24.07,24.07,0,0,0,2.93-1.53,18.17,18.17,0,0,1,1.72-.89,1.39,1.39,0,0,1,1.14-.1c.41.3.24,1.07-.52,2.32a20.58,20.58,0,0,1-3.58,4.13,25.33,25.33,0,0,1-5.79,4,15.29,15.29,0,0,1-7.11,1.72,13.13,13.13,0,0,1-4.29-.76,12.51,12.51,0,0,1-7.27-6.68,14.67,14.67,0,0,1-1.23-6.29,28.06,28.06,0,0,1,2.05-11,27.37,27.37,0,0,1,5.28-8.24,24,24,0,0,1,6.92-5.17A16.34,16.34,0,0,1,272.9,656.39Zm.41,8.94c-1.32,0-2.66.76-4,2.3a19.21,19.21,0,0,0-3.37,5.62,18.13,18.13,0,0,0-1.39,6.6,17.39,17.39,0,0,0,6.35-5.3,18.51,18.51,0,0,0,3.23-6.3C274.6,666.3,274.33,665.33,273.31,665.33Z"/><text class="cls-4" transform="translate(149.43 49.53)">K</text></g></svg>