<svg xmlns="http://www.w3.org/2000/svg" width="569.87" height="570.48" viewBox="0 0 569.87 570.48"><defs><style>.a{fill:#482ff7;}.b{fill:#ff3381;}.c{fill:#fff;}</style></defs><title>minimalKing</title><path class="a" d="M368.71,363.36l-.43-46.72.8-76.23.5-48.86,2.57-2.15a3.42,3.42,0,0,0,.23-5l-.88-.88a.73.73,0,0,1,0-1l.67-.66a3.43,3.43,0,0,0,0-4.85l-.42-.41a.71.71,0,0,1,0-1l.43-.42a3.42,3.42,0,0,0,0-4.84.71.71,0,0,1,0-1l.09-.09a3.4,3.4,0,0,0,0-4.83l-.17-.18a.71.71,0,0,1,0-1l.26-.25a3.42,3.42,0,0,0,0-4.83l-.1-.1a.7.7,0,0,1,0-1l2.6-2.61a3.42,3.42,0,0,0,0-4.83l-3.48-3.48a2.65,2.65,0,0,1,0-3.76,2.66,2.66,0,0,0,0-3.76l-1.65-1.66a2,2,0,0,0-1.37-.56,4.56,4.56,0,0,1-4.56-4.56v-.6a4,4,0,0,0-4-4h-6.14a.84.84,0,0,1-.84-.84v-3.93a2.75,2.75,0,0,0-2.75-2.76h-8.7a2.75,2.75,0,0,1-2.76-2.76,2.75,2.75,0,0,0-2.75-2.75h-3.54a1.92,1.92,0,0,0-1.92,1.92v.35a1.91,1.91,0,0,1-1.92,1.91h-1a1.9,1.9,0,0,1-1.91-1.91v-.52a1.91,1.91,0,0,0-1.93-1.91h-3.36a1.91,1.91,0,0,0-1.91,1.91v.83a1.92,1.92,0,0,1-1.92,1.92h-5.53a1.92,1.92,0,0,1-1.92-1.92,1.92,1.92,0,0,0-1.92-1.92h-1.85a1.92,1.92,0,0,0-1.92,1.92v.68a1.92,1.92,0,0,1-1.92,1.92h-3.42v-4.85l3.83-8v-5.16L289.61,90.65a1.23,1.23,0,0,1-.35-.52h-8.1a1.23,1.23,0,0,1-.35.52l-12.16,10.56v5.16l3.84,8v4.85h-5.35v-2.6a1.92,1.92,0,0,0-1.92-1.92h-1.84a1.92,1.92,0,0,0-1.91,1.92,1.92,1.92,0,0,1-1.92,1.92H254a1.93,1.93,0,0,1-1.93-1.92v-.83a1.9,1.9,0,0,0-1.91-1.91h-3.34a1.91,1.91,0,0,0-1.93,1.91v.52a1.9,1.9,0,0,1-1.91,1.91h-1a1.9,1.9,0,0,1-1.91-1.91V116a1.93,1.93,0,0,0-1.92-1.92h-4.37a1.92,1.92,0,0,0-1.92,1.92v2.09a1.5,1.5,0,0,1-1.5,1.5H219.14a1.5,1.5,0,0,0-1.5,1.5v4.53a1.51,1.51,0,0,1-1.51,1.5h-8a1.5,1.5,0,0,0-1.5,1.5v6.14a1.56,1.56,0,0,1-1.56,1.56h-2.91a2.12,2.12,0,0,0-1.5.62l-2,2a2.14,2.14,0,0,0,0,3l.75.75a2.13,2.13,0,0,1,0,3l-4.76,4.77a2.13,2.13,0,0,0,0,3l2.51,2.51a2.13,2.13,0,0,1,0,3,2.13,2.13,0,0,0,0,3l.21.21a2.07,2.07,0,0,1,0,2.93l-.17.17a2.07,2.07,0,0,0,0,2.93l.08.08a2.07,2.07,0,0,1,0,2.93,2.07,2.07,0,0,0,0,2.92l.41.42a2.07,2.07,0,0,1,0,2.93l-.41.41a2.07,2.07,0,0,0,0,2.93l.66.66a2.07,2.07,0,0,1,0,2.93l-.95.95a2.07,2.07,0,0,0,.14,3.06l5.66,4.73v0l1,47.36,1.59,76.08L205,363.36a7,7,0,0,0-6.83,8.59l24.2,104.35h129L375.56,372A7,7,0,0,0,368.71,363.36ZM295.63,124.78h8.76l19.08,11.54,5.14,8.52v19L317.47,175l4.32,4.34v3.07h-4.58l-5-5-4.32,4.32v7.65l6.08,6.07H300.25l-4.45-4.47,7.46-7.46v-4.85l-3.39-.63v-4.57l-4.24-4.23Zm-53.82,20.06,5.13-8.52L266,124.78h8.78v44.38l-4.24,4.23V178l-3.4.63v4.85l7.47,7.46-4.46,4.47H256.49l6.05-6.07v-7.65l-4.3-4.32-5.05,5h-4.56v-3.07L253,175l-11.14-11.13ZM210.9,178.38l-3.32-18a1.63,1.63,0,0,1,0-.62l3.09-13.64a1.55,1.55,0,0,1,.41-.74l17.22-17.46a1.51,1.51,0,0,1,1.06-.45h5.91A1.51,1.51,0,0,1,236.8,129v3.23a2.89,2.89,0,0,1-1.92,2.72l-3.37,1.22a2.9,2.9,0,0,0-1.91,2.72,2.36,2.36,0,0,0,.69,1.67l1.82,1.82a2.35,2.35,0,0,1,0,3.33l-3.68,3.68a2.4,2.4,0,0,0-.72,1.71v1.16a2.33,2.33,0,0,0,.7,1.67,2.42,2.42,0,0,1,0,3.43l-.26.25a2.38,2.38,0,0,0-.69,1.67V161a2.34,2.34,0,0,0,.69,1.66l1.36,1.36a2.34,2.34,0,0,1,.69,1.66v5.07a1.5,1.5,0,0,0,1.5,1.5h.07a1.5,1.5,0,0,1,1.5,1.5v.73a1.47,1.47,0,0,1-.43,1.05,2.35,2.35,0,0,0,0,3.32l1.8,1.8a1.5,1.5,0,0,1,.44,1.06,2.1,2.1,0,0,1-2.1,2.09h-1.82a2.09,2.09,0,0,0-1.94,1.32l-.88,2.19a2.08,2.08,0,0,0-.15.86l.12,2.76a2.09,2.09,0,0,0,.61,1.39l5.43,5.45-7.6-1.35v-1.21a2.09,2.09,0,0,0-.61-1.48l-4.26-4.27a1.5,1.5,0,0,0-2.13,0l-2.1,2.1a1.5,1.5,0,0,1-2.12,0l-.51-.51a1.5,1.5,0,0,1,0-2.13,1.52,1.52,0,0,0,.45-1.07v-3.94a1.53,1.53,0,0,0-.44-1.06l-3.71-3.71A1.53,1.53,0,0,1,210.9,178.38Zm64.52,138.26H244a4.41,4.41,0,0,0-4.42,4.41v30.14l-7.73-7.71a9.39,9.39,0,0,1-2.76-6.66V324.77a9.42,9.42,0,0,0-3.3-7.15l-1.15-1-8.06-6.88a9.42,9.42,0,0,1-3.31-7.17V261.7h17.39v6.24h0v6.67a1.27,1.27,0,0,0,1.28,1.27h18.92a4.73,4.73,0,1,0,7.72,0h11.71L275.42,294Zm11.41,45.72-.08-.06.08-.05Zm74.7-60.51a9,9,0,0,1-3.15,6.83l-9.33,8-1.31,1.11a9,9,0,0,0-3.15,6.82V337a9,9,0,0,1-2.63,6.36l-7.86,7.83V321.05a4.41,4.41,0,0,0-4.42-4.41h-31.2V294l5.13-18.15h9.67v.92a4.57,4.57,0,0,0-.36,1.81,4.81,4.81,0,0,0,.41,1.94l0,0a4.73,4.73,0,0,0,9-2,4.77,4.77,0,0,0-.87-2.73H343V268.3h0v-6.6h18.48Zm.06-51.22-.06,1.46-63.28,7.46a3.82,3.82,0,0,0-3.32,3.13h0v.3c0,.12,0,.24,0,.36v4.59h0v2.61h0v58.56a8.11,8.11,0,0,1-2.35,5.69,8,8,0,0,1-13.71-5.69V270.55h0v-2.62h0v-4.59a3.83,3.83,0,0,0-3.38-3.8l-62.18-7.46v-15.4c4.49-4.41,3.43-10.67,9.58-14.41a13.72,13.72,0,0,1,2.17-1.09c10.16-3.69,13.17,5.81,22.78,3.23,9.68-2.22,7.88-12,18.47-13.49,10.64-1.11,11.27,8.82,21.15,8.64,9.89.18,10.5-9.75,21.14-8.65,10.59,1.49,8.78,11.26,18.46,13.48,9,2.43,12.25-5.82,21.05-3.76a17.14,17.14,0,0,1,1.74.54c8.62,3.49,6.8,10.65,11.8,15.51Zm1.28-90.42-3.33,18a2.18,2.18,0,0,1-.61,1.16l-3.33,3.35a2.17,2.17,0,0,0-.65,1.56v3.64a1.54,1.54,0,0,0,.44,1.07,1.49,1.49,0,0,1,0,2.12,2.21,2.21,0,0,1-3.13,0l-1.1-1.1a2.22,2.22,0,0,0-3.14,0l-4.2,4.21a.54.54,0,0,0-.15.38v1.68h0l-8.19,2.11,6.47-6.46a.6.6,0,0,0,.16-.36l.15-3.69a.93.93,0,0,0,0-.23l-1-2.52a2.08,2.08,0,0,0-1.93-1.29h-1.82a2.08,2.08,0,0,1-2.08-2.08,1.51,1.51,0,0,1,.45-1.08l2.35-2.36a1.52,1.52,0,0,0,0-2.17l-.56-.56a1.54,1.54,0,0,1-.45-1.09v-.67a1.54,1.54,0,0,1,1.54-1.54,1.54,1.54,0,0,0,1.54-1.54v-4.36a4,4,0,0,1,1.16-2.8l.88-.87a2.4,2.4,0,0,0,.7-1.7v-1.73a2.4,2.4,0,0,0-.7-1.7l-.26-.26a2.41,2.41,0,0,1,0-3.4,2.39,2.39,0,0,0,.71-1.7v-1.15a2.38,2.38,0,0,0-.71-1.69l-3.45-3.45a2.69,2.69,0,0,1,0-3.82l1.47-1.47a2.69,2.69,0,0,0-1-4.44l-5.42-2v-6.77h7.68a.88.88,0,0,1,.59.25l17.6,17.83a.72.72,0,0,1,.19.34l3.18,14A.93.93,0,0,1,362.87,160.21Z"/><path class="b" d="M241.24,367.94a27.22,27.22,0,0,1,6.8.8,25.31,25.31,0,0,1,5,1.78,6,6,0,0,1,2.39,1.74q-2,.67-3.56,4.48a61.17,61.17,0,0,0-2.71,8.85,58.76,58.76,0,0,0,6-6.58c1.46-1.74,2.94-3.45,4.46-5.14a39.52,39.52,0,0,1,4.37-4.23,6.22,6.22,0,0,1,3.68-1.7,5.74,5.74,0,0,1,3.2.78,4.39,4.39,0,0,1,1.67,2,5.86,5.86,0,0,1,.44,2.53,7.18,7.18,0,0,1-.54,2.48,5.42,5.42,0,0,1-1.22,1.86,5.59,5.59,0,0,0-5.16-1.5,12.58,12.58,0,0,0-5.17,2.82,60.24,60.24,0,0,0-4.74,4.56c-1,1.09-2,2-2.83,2.83a6.63,6.63,0,0,1-2.3,1.51q3.94.77,5.5,3a9.71,9.71,0,0,1,1.69,5.27,44.26,44.26,0,0,1-.18,6.17q-.21,2.07-.24,4a11.56,11.56,0,0,0,.36,3.35,4.31,4.31,0,0,0,1.54,2.31,5.37,5.37,0,0,0,3.3.85,6.87,6.87,0,0,1-1.12,3.83,9.26,9.26,0,0,1-2.72,2.78,6.48,6.48,0,0,1-3.17,1.14,11.1,11.1,0,0,1-3.16-.47,7.89,7.89,0,0,1-2.85-1.53A7.65,7.65,0,0,1,248,415.6a10.86,10.86,0,0,1-.78-4.38,32.24,32.24,0,0,1,.58-5.76q.56-2.9,1.21-5.51a32.76,32.76,0,0,0,1.19-6.65c.07-1.73-.65-2.64-2.19-2.71q-.7,3.12-1.39,5.76a77.29,77.29,0,0,1-2.41,7.4,44.36,44.36,0,0,1-3.89,7.88,22.44,22.44,0,0,1-5.66,6.25,12.94,12.94,0,0,1-7.7,2.56,15.75,15.75,0,0,1-5-.9,14.19,14.19,0,0,1-4.5-2.56,12.74,12.74,0,0,1-3.23-4.23,13.28,13.28,0,0,1-1.22-5.82,12.56,12.56,0,0,1,1.22-5.58,12.69,12.69,0,0,1,3.18-4.15,11.94,11.94,0,0,1,4.27-2.39,9.5,9.5,0,0,1,4.57-.28,7.67,7.67,0,0,1,4,2.19,3.58,3.58,0,0,0-2.37.92A7.72,7.72,0,0,0,226,400a10.59,10.59,0,0,0-1.06,3.06,7.92,7.92,0,0,0,0,3.07,4.3,4.3,0,0,0,1.32,2.37,4.22,4.22,0,0,0,2.92.92A4.9,4.9,0,0,0,232.5,408a17.65,17.65,0,0,0,3-3.81,44.38,44.38,0,0,0,2.61-5.06c.79-1.82,1.5-3.59,2.13-5.34s1.14-3.27,1.56-4.59c.11-.4.23-.82.37-1.25.81-2.69,1.76-5.45,2.83-8.29a24.33,24.33,0,0,1,3.78-6.86,16,16,0,0,0-2.5-.2,15.54,15.54,0,0,0-6.28,1.08,8.83,8.83,0,0,0-3.61,2.65,5.45,5.45,0,0,0-1.2,3.15,3.72,3.72,0,0,0,1,2.67,3.61,3.61,0,0,0,2.82,1.09,2.67,2.67,0,0,1-1.29,2.1,10.84,10.84,0,0,1-3.14,1.56,11.44,11.44,0,0,1-3.54.6,6.49,6.49,0,0,1-3.38-.93,6.89,6.89,0,0,1-2.51-2.57,7.31,7.31,0,0,1-1-3.77,9.58,9.58,0,0,1,2.27-6.26,15.5,15.5,0,0,1,6.14-4.38A22.25,22.25,0,0,1,241.24,367.94Z"/><path class="b" d="M270.75,388.74a5.72,5.72,0,0,1,2.51.67,7.35,7.35,0,0,1,2.37,1.79,3.65,3.65,0,0,1,1,2.48,11.68,11.68,0,0,1-.46,3c-.3,1.11-.66,2.3-1.08,3.56q-.82,2.42-1.51,5.12a22,22,0,0,0-.7,5.55,9.47,9.47,0,0,0,.21,2.13c.15.61.29,1.13.44,1.56a3.29,3.29,0,0,1,.27,1.15c0,.26-.26.38-.75.38a10.23,10.23,0,0,1-5-1,5.71,5.71,0,0,1-2.49-2.65,9.06,9.06,0,0,1-.78-3.53,23.54,23.54,0,0,1,.79-5.69q.8-3.17,1.7-6.18c.44-1.47.81-2.81,1.12-4a11.67,11.67,0,0,0,.47-2.85,1.24,1.24,0,0,1,.56-1.14A2.6,2.6,0,0,1,270.75,388.74Zm3.89-10.13a4.32,4.32,0,1,1-3,1.26A4.14,4.14,0,0,1,274.64,378.61Z"/><path class="b" d="M282.93,388.68a6,6,0,0,1,2.54.67,7.57,7.57,0,0,1,2.36,1.79,3.66,3.66,0,0,1,1,2.51,8.91,8.91,0,0,1-.14,1.5,19.38,19.38,0,0,1,2.91-3.31,12.82,12.82,0,0,1,3.5-2.29,10.07,10.07,0,0,1,4.11-.84,5.28,5.28,0,0,1,3.68,1.25,4.65,4.65,0,0,1,1.38,3.63,13.51,13.51,0,0,1-.64,3.54c-.41,1.33-.89,2.75-1.44,4.24s-1.17,3.29-1.66,4.92a18.1,18.1,0,0,0-.78,4.54,5.49,5.49,0,0,0,1,3.51c.16.22,0,.47-.52.74a9.35,9.35,0,0,1-1.9.69,8.08,8.08,0,0,1-2,.3,15.14,15.14,0,0,1-1.86-.14,6.38,6.38,0,0,1-2.07-.68,4.39,4.39,0,0,1-1.69-1.68,6.12,6.12,0,0,1-.68-3.12,12,12,0,0,1,.95-4.2c.63-1.63,1.33-3.26,2.08-4.91.63-1.38,1.16-2.64,1.61-3.79a9.32,9.32,0,0,0,.71-2.78c0-.71-.3-1.06-1-1.06q-1.59,0-3.52,3.09a34.39,34.39,0,0,0-3.42,7.75,43,43,0,0,0-1.89,9.62,3.22,3.22,0,0,0,.17,1.08,1.4,1.4,0,0,1,.07.63c0,.15-.22.22-.58.22a10.19,10.19,0,0,1-5.05-1,5.87,5.87,0,0,1-2.48-2.64,9.33,9.33,0,0,1-.78-3.52,24.15,24.15,0,0,1,.78-5.72q.78-3.17,1.69-6.17c.45-1.48.83-2.81,1.15-4a11.93,11.93,0,0,0,.46-2.84,1.25,1.25,0,0,1,.54-1.16A2.51,2.51,0,0,1,282.93,388.68Z"/><path class="b" d="M328.33,388.74a4.81,4.81,0,0,1,3,1.18c.84.73,1.25,1.31,1.25,1.74-1.51.67-2.77,2.34-3.78,5a86.74,86.74,0,0,0-2.94,9.67q-1.08,4.2-2.47,8.6-.76,2.55-1.82,5.15a21.79,21.79,0,0,1-2.66,4.78,11.8,11.8,0,0,1-10.16,4.88,7,7,0,0,1-6.27-3.46,6,6,0,0,1-.88-3.06,7.35,7.35,0,0,1,.49-2.87,6.11,6.11,0,0,1,1.22-1.89,7,7,0,0,1,1.45-1.12,8.44,8.44,0,0,1,1.72-.68,8.54,8.54,0,0,0-.07,1.62,3.6,3.6,0,0,0,.35,1.36,2.73,2.73,0,0,0,1,1.15,3.68,3.68,0,0,0,2,.47,5.13,5.13,0,0,0,3.44-1.25,11.06,11.06,0,0,0,2.49-3.06,21.55,21.55,0,0,0,1.63-3.64,39.56,39.56,0,0,0,1.15-4.31,24.42,24.42,0,0,1-2.36,3.63,12.5,12.5,0,0,1-2.68,2.59,5,5,0,0,1-2.85,1,7.06,7.06,0,0,1-3-.68,5.55,5.55,0,0,1-2.42-2.3,8.56,8.56,0,0,1-1-4.43,26.63,26.63,0,0,1,.47-4.59,29.9,29.9,0,0,1,1.48-5.28,22.41,22.41,0,0,1,2.59-4.95,13.43,13.43,0,0,1,3.81-3.71,9.31,9.31,0,0,1,5.13-1.41,7.94,7.94,0,0,1,2.8.73,5.56,5.56,0,0,1,2.48,1.76,3.57,3.57,0,0,1,1.49-1.84,5,5,0,0,1,2.06-.67C327.32,388.77,327.89,388.74,328.33,388.74Zm-8.09,6.16a3.28,3.28,0,0,0-2.48,1.39,13.68,13.68,0,0,0-2.07,3.41,23,23,0,0,0-1.38,4,12.06,12.06,0,0,0-.4,3.39c.06.93.35,1.39.88,1.39s1.11-.49,1.68-1.47a26.06,26.06,0,0,0,1.69-3.74c.55-1.5,1.11-3.08,1.66-4.75.39-1.17.78-2.3,1.16-3.38A1.07,1.07,0,0,0,320.24,394.9Z"/><path class="b" d="M339,379.59a3.4,3.4,0,0,1,.71,2.38,6.12,6.12,0,0,1-.89,2.81,7.33,7.33,0,0,1-2.29,2.39,6.1,6.1,0,0,1-3.47,1,12.85,12.85,0,0,0,.92-1,8.66,8.66,0,0,0,.95-1.43,3.3,3.3,0,0,0,.43-1.54,2,2,0,0,1-1.78-.82,2.7,2.7,0,0,1-.48-1.89,3.05,3.05,0,0,1,.94-1.9,3.69,3.69,0,0,1,2.45-.95A3,3,0,0,1,339,379.59Z"/><path class="b" d="M355.68,397.62a3.71,3.71,0,0,0,.17-1.88,3.6,3.6,0,0,0-.83-1.89A2.55,2.55,0,0,0,353,393a2.3,2.3,0,0,0-1.76.71,2.47,2.47,0,0,0-.68,1.78,4,4,0,0,0,.91,2.59,21.35,21.35,0,0,0,2.15,2.29c.7.67,1.39,1.39,2.08,2.18a11,11,0,0,1,1.7,2.69,8.7,8.7,0,0,1,.68,3.56,7.43,7.43,0,0,1-1,3.86,8.78,8.78,0,0,1-2.47,2.74,11,11,0,0,1-3.23,1.63,10.86,10.86,0,0,1-3.23.54,14,14,0,0,1-4.93-.86,8.33,8.33,0,0,1-3.67-2.62,6.91,6.91,0,0,1-1.39-4.46,7.3,7.3,0,0,1,.82-3.59,6.28,6.28,0,0,1,2.07-2.3,5.77,5.77,0,0,1,2.57-.95,3.68,3.68,0,0,1,2.34.45,3.09,3.09,0,0,0-.95,1.63,4.35,4.35,0,0,0,0,2.06,3.66,3.66,0,0,0,1,1.79,2.71,2.71,0,0,0,2,.73,2.47,2.47,0,0,0,1.59-.48,2.68,2.68,0,0,0,.85-1.16,3.7,3.7,0,0,0,.26-1.28,4.23,4.23,0,0,0-.46-1.94,8.57,8.57,0,0,0-1.19-1.79q-.74-.87-1.59-1.74c-.62-.63-1.22-1.29-1.79-2a11,11,0,0,1-1.41-2.21,5.87,5.87,0,0,1-.57-2.6,7.59,7.59,0,0,1,.82-3.4,6.66,6.66,0,0,1,2.7-2.78,9.8,9.8,0,0,1,5-1.11,10.05,10.05,0,0,1,4.5,1,8.12,8.12,0,0,1,3.09,2.53,5.8,5.8,0,0,1,1.12,3.42,6.27,6.27,0,0,1-.64,3.08,4.22,4.22,0,0,1-1.56,1.69,4.31,4.31,0,0,1-1.84.61,3.43,3.43,0,0,1-1.56-.18c-.43-.17-.64-.4-.64-.68C355.15,398.45,355.47,398.17,355.68,397.62Z"/><path class="b" d="M246.89,427.38a23.24,23.24,0,0,1,5.73.66,20.23,20.23,0,0,1,4.25,1.51,5,5,0,0,1,2,1.47,4,4,0,0,0-2.16,2.08,22.78,22.78,0,0,0-1.78,4.3q-.8,2.58-1.49,5.47a8.57,8.57,0,0,1,1.89-.24,4.82,4.82,0,0,1,2.31.5,3.56,3.56,0,0,1,1.4,1.25q1.35-3.27,2.86-6.32a50.91,50.91,0,0,1,3.12-5.44,20.43,20.43,0,0,1,3.16-3.82,4.54,4.54,0,0,1,3-1.42,3.39,3.39,0,0,1,2,.54q.78.54.78,1a25.1,25.1,0,0,0-5.43,8,51.6,51.6,0,0,0-3.29,9.93,39.89,39.89,0,0,0-1.1,8.1,17.65,17.65,0,0,0,.64,5.39,5.51,5.51,0,0,0,1.61,2.68,3.16,3.16,0,0,0,2,.77,3.34,3.34,0,0,1-1.32,1.74,12,12,0,0,1-3,1.74,8.51,8.51,0,0,1-3.45.76,6.24,6.24,0,0,1-4.47-1.56c-1.11-1-1.67-2.73-1.7-5.07q.09-4,2.53-11.33a4.16,4.16,0,0,1-1.34.26,2.4,2.4,0,0,0,.52-2.42,1,1,0,0,0-.92-.6,9.27,9.27,0,0,0-3,.79c-.28,1.17-.55,2.26-.82,3.26a62.26,62.26,0,0,1-2,6.25,37.67,37.67,0,0,1-3.28,6.65,19.17,19.17,0,0,1-4.78,5.28,10.88,10.88,0,0,1-6.5,2.15,13,13,0,0,1-4.26-.75,12.1,12.1,0,0,1-3.8-2.17,10.49,10.49,0,0,1-2.74-3.57,11.08,11.08,0,0,1-1-4.91,10.47,10.47,0,0,1,1-4.7,10.72,10.72,0,0,1,2.68-3.51,10,10,0,0,1,3.61-2,7.67,7.67,0,0,1,3.85-.24,6.62,6.62,0,0,1,3.41,1.83,3,3,0,0,0-2,.79,6.73,6.73,0,0,0-1.55,2,9.14,9.14,0,0,0-.89,2.59,6.58,6.58,0,0,0,0,2.58,3.61,3.61,0,0,0,1.11,2,3.53,3.53,0,0,0,2.45.78,4,4,0,0,0,2.61-1.06,12.68,12.68,0,0,0,2.37-2.82,32.92,32.92,0,0,0,2.11-3.84q1-2.1,1.77-4.2a4.7,4.7,0,0,1-.62,0,2.84,2.84,0,0,1-1.93-.69,4.59,4.59,0,0,1-1.25-1.81,6.43,6.43,0,0,1-.44-2.36,6.61,6.61,0,0,0,2.8,0,27.53,27.53,0,0,0,3.4-.91c.05-.16.11-.32.17-.48q1-3.42,2.37-7a20.45,20.45,0,0,1,3.19-5.78,14.21,14.21,0,0,0-2.09-.17,13.33,13.33,0,0,0-5.31.91,7.49,7.49,0,0,0-3.05,2.24,4.68,4.68,0,0,0-1,2.66,3,3,0,0,0,3.17,3.17,2.28,2.28,0,0,1-1.08,1.78,8.81,8.81,0,0,1-2.64,1.31,9.68,9.68,0,0,1-3,.51,5.56,5.56,0,0,1-2.87-.79,5.94,5.94,0,0,1-2.11-2.17,6.36,6.36,0,0,1-.79-3.18,8.15,8.15,0,0,1,1.91-5.28,13,13,0,0,1,5.17-3.7A18.83,18.83,0,0,1,246.89,427.38Z"/><path class="b" d="M280.41,444.41a4.93,4.93,0,0,1,4.19,2,9.19,9.19,0,0,1,1.51,5.63,20.9,20.9,0,0,1-.42,3.92,25.27,25.27,0,0,1-1.25,4.36,20.43,20.43,0,0,1-2.05,4,11.18,11.18,0,0,1-2.79,3,5.9,5.9,0,0,1-3.5,1.13,7,7,0,0,1-3.41-.82,5.91,5.91,0,0,1-2.42-2.48,8.77,8.77,0,0,1-.9-4.2,20.28,20.28,0,0,1,.82-5.59,22.49,22.49,0,0,1,2.28-5.37,14.07,14.07,0,0,1,3.5-4A7.15,7.15,0,0,1,280.41,444.41Zm.84,5c-.61,0-1.2.42-1.78,1.25a12.85,12.85,0,0,0-1.54,3.06,19.77,19.77,0,0,0-.93,3.63,8.72,8.72,0,0,0,0,3.07c.18.83.62,1.25,1.31,1.25.39,0,.83-.3,1.31-.89a11.93,11.93,0,0,0,1.38-2.29,22,22,0,0,0,1.13-2.95,14.72,14.72,0,0,0,.59-2.94,5.25,5.25,0,0,0-.19-2.29A1.24,1.24,0,0,0,281.25,449.41Z"/><path class="b" d="M291.69,444.88a5.06,5.06,0,0,1,2.15.56,6,6,0,0,1,2,1.49,3.11,3.11,0,0,1,.83,2.12,12.34,12.34,0,0,1-.57,3.13q-.58,2-1.32,4.2c-.42,1.25-.78,2.42-1.1,3.51a15.59,15.59,0,0,0-.59,2.67c-.07.69.07,1,.42,1a3,3,0,0,0,2.12-1.26,21.12,21.12,0,0,0,2.23-3.15q1.11-1.89,2.08-3.95c.65-1.37,1.21-2.62,1.69-3.73s.64-2.2.88-3.13a9.49,9.49,0,0,0,.36-2.24,1,1,0,0,1,.46-1,2.2,2.2,0,0,1,1.15-.28,5,5,0,0,1,2.14.56,6,6,0,0,1,2,1.49,3.12,3.12,0,0,1,.84,2.12,9.92,9.92,0,0,1-.38,2.55c-.26.94-.57,1.93-.94,3-.45,1.38-.87,2.82-1.27,4.34a18.24,18.24,0,0,0-.6,4.67,7.47,7.47,0,0,0,.2,1.81c.12.52.24,1,.35,1.3a3,3,0,0,1,.23,1c0,.21-.21.32-.61.32a8.56,8.56,0,0,1-4.27-.87,4.77,4.77,0,0,1-2.1-2.22,7,7,0,0,1-.62-3.81,23.22,23.22,0,0,1-2,3.49,11,11,0,0,1-2.32,2.48,4.09,4.09,0,0,1-2.51.93,5.86,5.86,0,0,1-4.46-1.58,6.31,6.31,0,0,1-1.48-4.48,19.86,19.86,0,0,1,.67-4.83q.66-2.67,1.43-5.18c.37-1.25.69-2.38.95-3.39a10.39,10.39,0,0,0,.39-2.41,1,1,0,0,1,.47-1A2.29,2.29,0,0,1,291.69,444.88Z"/><path class="b" d="M323.42,452.43a3.17,3.17,0,0,0,.15-1.59,3.1,3.1,0,0,0-.71-1.6,2.15,2.15,0,0,0-1.73-.69,2,2,0,0,0-1.49.6,2.1,2.1,0,0,0-.57,1.51,3.41,3.41,0,0,0,.76,2.18,20,20,0,0,0,1.82,1.94c.59.56,1.18,1.17,1.75,1.83a9.23,9.23,0,0,1,1.44,2.27,7.38,7.38,0,0,1,.57,3,6.38,6.38,0,0,1-.81,3.26,7.58,7.58,0,0,1-2.09,2.31,9.21,9.21,0,0,1-2.73,1.37,9,9,0,0,1-2.73.46,11.53,11.53,0,0,1-4.15-.73,7.06,7.06,0,0,1-3.1-2.2,5.91,5.91,0,0,1-1.18-3.78,6.22,6.22,0,0,1,.7-3,5.33,5.33,0,0,1,1.75-1.94,5,5,0,0,1,2.16-.8,3.18,3.18,0,0,1,2,.38,2.6,2.6,0,0,0-.8,1.38,3.66,3.66,0,0,0,0,1.74,3.1,3.1,0,0,0,.84,1.51,2.31,2.31,0,0,0,1.7.62,2.08,2.08,0,0,0,1.34-.41,2.3,2.3,0,0,0,.72-1,3.13,3.13,0,0,0,.21-1.08,3.62,3.62,0,0,0-.38-1.64,7,7,0,0,0-1-1.51c-.41-.48-.86-1-1.34-1.47s-1-1.08-1.5-1.66a9.57,9.57,0,0,1-1.2-1.87,5,5,0,0,1-.48-2.19,6.52,6.52,0,0,1,.69-2.88,5.62,5.62,0,0,1,2.28-2.34,8.2,8.2,0,0,1,4.24-.94,8.41,8.41,0,0,1,3.79.82,6.7,6.7,0,0,1,2.61,2.14,4.9,4.9,0,0,1,.95,2.89,5.31,5.31,0,0,1-.54,2.59,3.56,3.56,0,0,1-2.87,1.94,3,3,0,0,1-1.32-.15c-.36-.15-.54-.34-.54-.58Q323.17,453.12,323.42,452.43Z"/><path class="b" d="M339.59,444.93a5.21,5.21,0,0,1,2.59.65,4.63,4.63,0,0,1,1.82,1.94,7.13,7.13,0,0,1,.67,3.26,8.64,8.64,0,0,1-1,3.85,10.69,10.69,0,0,1-3.19,3.68,12.18,12.18,0,0,1-5.38,2.17,3.49,3.49,0,0,0,1.37,1.74,4.66,4.66,0,0,0,2.68.67,4.91,4.91,0,0,0,2.06-.43,14.07,14.07,0,0,0,1.7-.88,8.17,8.17,0,0,1,1-.52.77.77,0,0,1,.65-.06c.24.18.14.63-.3,1.34a11.8,11.8,0,0,1-2.07,2.4,14.59,14.59,0,0,1-3.35,2.31,8.94,8.94,0,0,1-4.12,1,7.47,7.47,0,0,1-2.48-.44,7.39,7.39,0,0,1-2.39-1.4,7.13,7.13,0,0,1-1.82-2.47,8.53,8.53,0,0,1-.71-3.64,16.22,16.22,0,0,1,1.19-6.37,15.57,15.57,0,0,1,3-4.76,13.93,13.93,0,0,1,4-3A9.49,9.49,0,0,1,339.59,444.93Zm.24,5.18a3.21,3.21,0,0,0-2.32,1.33,10.81,10.81,0,0,0-1.95,3.25,10.61,10.61,0,0,0-.81,3.82,10,10,0,0,0,3.68-3.06,10.77,10.77,0,0,0,1.87-3.66C340.58,450.67,340.42,450.11,339.83,450.11Z"/><path class="c" d="M244.07,364.5a27.16,27.16,0,0,1,6.79.79,25.61,25.61,0,0,1,5,1.79,6,6,0,0,1,2.38,1.73c-1.36.46-2.55,1.95-3.56,4.49a63.77,63.77,0,0,0-2.71,8.85,58.66,58.66,0,0,0,6.05-6.58c1.45-1.75,2.94-3.46,4.45-5.14a39.52,39.52,0,0,1,4.37-4.23,6.27,6.27,0,0,1,3.69-1.7,5.7,5.7,0,0,1,3.19.78,4.41,4.41,0,0,1,1.68,2,6,6,0,0,1,.44,2.53,7.23,7.23,0,0,1-.54,2.48,5.57,5.57,0,0,1-1.22,1.86,5.65,5.65,0,0,0-5.17-1.51,12.63,12.63,0,0,0-5.16,2.83,55.27,55.27,0,0,0-4.74,4.55c-1,1.1-2,2.05-2.84,2.84a6.57,6.57,0,0,1-2.3,1.5c2.63.51,4.47,1.52,5.51,3a9.79,9.79,0,0,1,1.69,5.27,44.29,44.29,0,0,1-.19,6.17q-.19,2.07-.24,4a11.14,11.14,0,0,0,.37,3.34,4.23,4.23,0,0,0,1.53,2.32,5.47,5.47,0,0,0,3.31.85,7,7,0,0,1-1.12,3.83,9.41,9.41,0,0,1-2.73,2.78,6.45,6.45,0,0,1-3.16,1.14,11.17,11.17,0,0,1-3.17-.47,7.91,7.91,0,0,1-2.85-1.54,7.63,7.63,0,0,1-2.06-2.83,11,11,0,0,1-.78-4.39,32.35,32.35,0,0,1,.59-5.76c.36-1.93.77-3.76,1.2-5.5a32.26,32.26,0,0,0,1.19-6.66c.08-1.73-.65-2.63-2.18-2.71-.47,2.08-.94,4-1.39,5.76q-.88,3.33-2.41,7.41a44.27,44.27,0,0,1-3.89,7.87,22.5,22.5,0,0,1-5.66,6.26,13,13,0,0,1-7.71,2.56,15.64,15.64,0,0,1-5-.9,14,14,0,0,1-4.5-2.57A12.7,12.7,0,0,1,217,409.3a13.24,13.24,0,0,1-1.22-5.81,12.56,12.56,0,0,1,1.22-5.58,13.12,13.12,0,0,1,3.18-4.16,12,12,0,0,1,4.27-2.38,9.38,9.38,0,0,1,4.57-.28,7.75,7.75,0,0,1,4.05,2.18,3.59,3.59,0,0,0-2.37.92,8,8,0,0,0-1.86,2.37,10.77,10.77,0,0,0-1.07,3.07,7.87,7.87,0,0,0,0,3.06A3.91,3.91,0,0,0,232,406a4.85,4.85,0,0,0,3.32-1.46,17.31,17.31,0,0,0,3-3.8,42.11,42.11,0,0,0,2.61-5.06q1.2-2.73,2.13-5.34t1.56-4.6c.12-.39.24-.81.37-1.24q1.22-4,2.84-8.29a24.5,24.5,0,0,1,3.77-6.87,17.33,17.33,0,0,0-2.49-.2,15.59,15.59,0,0,0-6.29,1.08,8.81,8.81,0,0,0-3.6,2.65A5.45,5.45,0,0,0,238,376a3.75,3.75,0,0,0,.95,2.66,3.6,3.6,0,0,0,2.83,1.09,2.68,2.68,0,0,1-1.3,2.1,10.3,10.3,0,0,1-3.13,1.56,11.45,11.45,0,0,1-3.55.6,6.58,6.58,0,0,1-3.38-.92,7,7,0,0,1-2.51-2.57,7.43,7.43,0,0,1-1-3.77,9.61,9.61,0,0,1,2.27-6.26,15.43,15.43,0,0,1,6.15-4.38A22.25,22.25,0,0,1,244.07,364.5Z"/><path class="c" d="M273.58,385.3a5.79,5.79,0,0,1,2.51.67,7.47,7.47,0,0,1,2.37,1.78,3.68,3.68,0,0,1,1,2.49,11.7,11.7,0,0,1-.45,3c-.31,1.1-.67,2.29-1.08,3.56-.55,1.61-1.06,3.31-1.52,5.12a22.44,22.44,0,0,0-.69,5.55,9.6,9.6,0,0,0,.21,2.13c.14.6.29,1.12.44,1.56a3.29,3.29,0,0,1,.27,1.15c0,.25-.26.38-.75.38a10.2,10.2,0,0,1-5-1,5.78,5.78,0,0,1-2.5-2.65,9.44,9.44,0,0,1-.78-3.54,23.66,23.66,0,0,1,.8-5.69c.53-2.11,1.09-4.16,1.7-6.17.43-1.47.81-2.81,1.12-4a12.33,12.33,0,0,0,.47-2.86,1.22,1.22,0,0,1,.55-1.13A2.57,2.57,0,0,1,273.58,385.3Zm3.88-10.13a4.11,4.11,0,0,1,3,1.26,4.27,4.27,0,1,1-3-1.26Z"/><path class="c" d="M285.75,385.24a5.81,5.81,0,0,1,2.54.67,7.35,7.35,0,0,1,2.37,1.79,3.68,3.68,0,0,1,1,2.51,8.06,8.06,0,0,1-.14,1.5,19.45,19.45,0,0,1,2.91-3.32,13.33,13.33,0,0,1,3.5-2.28,10.09,10.09,0,0,1,4.12-.84,5.25,5.25,0,0,1,3.67,1.25,4.64,4.64,0,0,1,1.38,3.63,13,13,0,0,1-.64,3.53c-.41,1.34-.88,2.75-1.43,4.25s-1.18,3.28-1.66,4.92a18.1,18.1,0,0,0-.78,4.54,5.33,5.33,0,0,0,1,3.5c.15.23,0,.48-.53.74a8.56,8.56,0,0,1-1.9.7,8,8,0,0,1-2,.3,13.56,13.56,0,0,1-1.86-.15,5.93,5.93,0,0,1-2.07-.68,4.5,4.5,0,0,1-1.69-1.67,6.12,6.12,0,0,1-.68-3.12,11.93,11.93,0,0,1,.95-4.2c.64-1.63,1.33-3.27,2.09-4.91.62-1.38,1.16-2.65,1.6-3.79a9,9,0,0,0,.71-2.78c0-.71-.3-1.07-1-1.07-1.06,0-2.23,1-3.52,3.1a34.77,34.77,0,0,0-3.41,7.74,42,42,0,0,0-1.89,9.62,2.92,2.92,0,0,0,.17,1.08,1.62,1.62,0,0,1,.07.64c0,.14-.22.21-.58.21a10.17,10.17,0,0,1-5.05-1,5.79,5.79,0,0,1-2.49-2.64,9.29,9.29,0,0,1-.78-3.52,24.08,24.08,0,0,1,.78-5.71c.52-2.11,1.09-4.17,1.69-6.18.46-1.47.84-2.81,1.15-4a12,12,0,0,0,.47-2.83,1.28,1.28,0,0,1,.54-1.17A2.47,2.47,0,0,1,285.75,385.24Z"/><path class="c" d="M331.15,385.3a4.76,4.76,0,0,1,3,1.18c.83.72,1.25,1.31,1.25,1.74-1.52.66-2.78,2.34-3.79,5a92.17,92.17,0,0,0-2.94,9.68q-1.08,4.2-2.47,8.6-.76,2.55-1.81,5.15a21.65,21.65,0,0,1-2.67,4.78,11.83,11.83,0,0,1-10.16,4.88,7.06,7.06,0,0,1-3.79-1,7.18,7.18,0,0,1-2.48-2.48,6,6,0,0,1-.88-3.07,7.29,7.29,0,0,1,.5-2.86,5.72,5.72,0,0,1,1.22-1.89,6.7,6.7,0,0,1,1.44-1.12,8.93,8.93,0,0,1,1.72-.68,9.39,9.39,0,0,0-.07,1.62,3.88,3.88,0,0,0,.36,1.36,2.66,2.66,0,0,0,1,1.15,3.64,3.64,0,0,0,2,.47,5.16,5.16,0,0,0,3.45-1.25,11.41,11.41,0,0,0,2.48-3.07,20.7,20.7,0,0,0,1.63-3.63,40.19,40.19,0,0,0,1.15-4.31,24.92,24.92,0,0,1-2.35,3.63,12.42,12.42,0,0,1-2.68,2.58,5,5,0,0,1-2.86,1,7,7,0,0,1-3-.68,5.63,5.63,0,0,1-2.43-2.3,8.69,8.69,0,0,1-1-4.43,25.77,25.77,0,0,1,.47-4.6,29.51,29.51,0,0,1,1.47-5.27,22.74,22.74,0,0,1,2.6-5,13.63,13.63,0,0,1,3.8-3.7,9.29,9.29,0,0,1,5.14-1.42,7.91,7.91,0,0,1,2.79.74,5.48,5.48,0,0,1,2.48,1.76,3.65,3.65,0,0,1,1.49-1.85,5,5,0,0,1,2.06-.66C330.14,385.33,330.72,385.3,331.15,385.3Zm-8.08,6.16a3.32,3.32,0,0,0-2.49,1.39,14.23,14.23,0,0,0-2.07,3.4,23.57,23.57,0,0,0-1.37,4,11.37,11.37,0,0,0-.4,3.39c.05.93.35,1.39.88,1.39s1.1-.49,1.67-1.48a24.84,24.84,0,0,0,1.69-3.73c.56-1.5,1.11-3.09,1.66-4.75.4-1.17.78-2.3,1.16-3.38A1,1,0,0,0,323.07,391.46Z"/><path class="c" d="M341.84,376.15a3.43,3.43,0,0,1,.71,2.38,6.17,6.17,0,0,1-.9,2.81,7.28,7.28,0,0,1-2.28,2.38,6.05,6.05,0,0,1-3.48,1,9.68,9.68,0,0,0,.92-1,9.49,9.49,0,0,0,1-1.44,3.27,3.27,0,0,0,.42-1.53,2,2,0,0,1-1.77-.82,2.76,2.76,0,0,1-.49-1.89,3.05,3.05,0,0,1,.94-1.9,3.69,3.69,0,0,1,2.46-.95A3,3,0,0,1,341.84,376.15Z"/><path class="c" d="M358.51,394.18a3.88,3.88,0,0,0,.17-1.89,3.66,3.66,0,0,0-.84-1.88,2.54,2.54,0,0,0-2.06-.83,2.35,2.35,0,0,0-1.76.71,2.51,2.51,0,0,0-.68,1.79,4,4,0,0,0,.91,2.58,21.61,21.61,0,0,0,2.16,2.3c.7.66,1.39,1.39,2.07,2.17a10.94,10.94,0,0,1,1.7,2.7,8.53,8.53,0,0,1,.68,3.56,7.55,7.55,0,0,1-1,3.86,8.9,8.9,0,0,1-2.47,2.74,11,11,0,0,1-3.24,1.63,10.86,10.86,0,0,1-3.23.54,13.69,13.69,0,0,1-4.92-.87,8.34,8.34,0,0,1-3.68-2.61,6.92,6.92,0,0,1-1.39-4.47,7.44,7.44,0,0,1,.82-3.59,6.29,6.29,0,0,1,2.08-2.3,5.86,5.86,0,0,1,2.56-.95,3.74,3.74,0,0,1,2.34.46,3,3,0,0,0-.95,1.63,4.35,4.35,0,0,0,0,2.06,3.69,3.69,0,0,0,1,1.78,2.7,2.7,0,0,0,2,.74,2.47,2.47,0,0,0,1.59-.48,2.76,2.76,0,0,0,.85-1.16,3.67,3.67,0,0,0,.25-1.28,4.42,4.42,0,0,0-.45-1.95,8.78,8.78,0,0,0-1.19-1.78c-.5-.58-1-1.16-1.59-1.75a25.83,25.83,0,0,1-1.79-2,11.07,11.07,0,0,1-1.42-2.21,5.9,5.9,0,0,1-.57-2.6,7.61,7.61,0,0,1,.83-3.4,6.6,6.6,0,0,1,2.69-2.79,9.91,9.91,0,0,1,5-1.1,10.12,10.12,0,0,1,4.5,1,8.1,8.1,0,0,1,3.1,2.54,5.83,5.83,0,0,1,1.12,3.42,6.41,6.41,0,0,1-.64,3.08,4.24,4.24,0,0,1-3.41,2.3,3.46,3.46,0,0,1-1.56-.19c-.42-.17-.64-.39-.64-.68C358,395,358.3,394.73,358.51,394.18Z"/><path class="c" d="M249.71,423.93a23.38,23.38,0,0,1,5.74.66,20.81,20.81,0,0,1,4.25,1.51,5.23,5.23,0,0,1,2,1.47,4.06,4.06,0,0,0-2.17,2.09,22.54,22.54,0,0,0-1.77,4.3c-.54,1.71-1,3.54-1.5,5.47a8.71,8.71,0,0,1,1.89-.24,4.89,4.89,0,0,1,2.32.49,3.66,3.66,0,0,1,1.4,1.26q1.33-3.29,2.86-6.32a50.92,50.92,0,0,1,3.11-5.44,20.49,20.49,0,0,1,3.16-3.82,4.58,4.58,0,0,1,3-1.43,3.4,3.4,0,0,1,2,.54c.52.36.77.69.77,1a25,25,0,0,0-5.42,8,51.06,51.06,0,0,0-3.29,9.92,39.35,39.35,0,0,0-1.1,8.11,18.06,18.06,0,0,0,.63,5.39,5.44,5.44,0,0,0,1.62,2.68,3.19,3.19,0,0,0,2,.77,3.33,3.33,0,0,1-1.32,1.73,11.67,11.67,0,0,1-2.94,1.75,8.75,8.75,0,0,1-3.45.76,6.27,6.27,0,0,1-4.48-1.56q-1.65-1.56-1.7-5.08.09-4,2.54-11.33a4,4,0,0,1-1.34.27,2.31,2.31,0,0,0,.6-1.16,2.2,2.2,0,0,0-.09-1.26,1,1,0,0,0-.92-.6,9,9,0,0,0-3,.79c-.27,1.17-.54,2.25-.81,3.26a62.26,62.26,0,0,1-2,6.25,37.63,37.63,0,0,1-3.29,6.64,18.84,18.84,0,0,1-4.77,5.28,11,11,0,0,1-6.51,2.16,13.54,13.54,0,0,1-4.26-.75,12,12,0,0,1-3.79-2.17,10.61,10.61,0,0,1-2.75-3.57,11.25,11.25,0,0,1-1-4.91,10.64,10.64,0,0,1,1-4.71,10.81,10.81,0,0,1,2.69-3.5,10.12,10.12,0,0,1,3.6-2,7.83,7.83,0,0,1,3.86-.24,6.73,6.73,0,0,1,3.41,1.83,3,3,0,0,0-2,.79,6.68,6.68,0,0,0-1.56,2,9,9,0,0,0-.88,2.58,6.64,6.64,0,0,0,0,2.59,3.59,3.59,0,0,0,1.11,2,3.51,3.51,0,0,0,2.44.78,4,4,0,0,0,2.61-1.07,12.84,12.84,0,0,0,2.37-2.81,32.43,32.43,0,0,0,2.11-3.85q1-2.09,1.77-4.2a4.69,4.69,0,0,1-.62.05,2.83,2.83,0,0,1-1.93-.7,4.53,4.53,0,0,1-1.24-1.8,6.26,6.26,0,0,1-.44-2.36,6.62,6.62,0,0,0,2.8,0,25.87,25.87,0,0,0,3.4-.91,4.59,4.59,0,0,1,.17-.48q1-3.42,2.37-7a20.42,20.42,0,0,1,3.18-5.78,12.85,12.85,0,0,0-2.08-.17,13.21,13.21,0,0,0-5.32.91,7.36,7.36,0,0,0-3,2.24,4.67,4.67,0,0,0-1,2.66,3.16,3.16,0,0,0,.8,2.25,3.07,3.07,0,0,0,2.38.92,2.25,2.25,0,0,1-1.08,1.77,9,9,0,0,1-2.65,1.32,9.9,9.9,0,0,1-3,.5,5.42,5.42,0,0,1-2.87-.79,5.94,5.94,0,0,1-2.11-2.17,6.19,6.19,0,0,1-.79-3.17,8.14,8.14,0,0,1,1.9-5.28,13,13,0,0,1,5.17-3.7A18.83,18.83,0,0,1,249.71,423.93Z"/><path class="c" d="M283.24,441a5,5,0,0,1,4.19,2,9.19,9.19,0,0,1,1.51,5.63,20.92,20.92,0,0,1-.42,3.93,25.83,25.83,0,0,1-1.26,4.36,20.71,20.71,0,0,1-2.05,4,10.87,10.87,0,0,1-2.79,3,5.86,5.86,0,0,1-3.49,1.12,7.13,7.13,0,0,1-3.41-.81,5.86,5.86,0,0,1-2.42-2.48,8.77,8.77,0,0,1-.9-4.2,20.72,20.72,0,0,1,.81-5.6,22.67,22.67,0,0,1,2.29-5.36,13.92,13.92,0,0,1,3.5-4A7.16,7.16,0,0,1,283.24,441Zm.84,5a2.36,2.36,0,0,0-1.79,1.24,13.11,13.11,0,0,0-1.53,3.07,18.63,18.63,0,0,0-.93,3.63,8.22,8.22,0,0,0,0,3.06c.18.84.61,1.26,1.3,1.26q.6,0,1.32-.9a11.62,11.62,0,0,0,1.38-2.29A21.33,21.33,0,0,0,285,452.1a15.61,15.61,0,0,0,.6-3,5.36,5.36,0,0,0-.19-2.28A1.25,1.25,0,0,0,284.08,446Z"/><path class="c" d="M294.52,441.44a5.14,5.14,0,0,1,2.14.55,6,6,0,0,1,2,1.5,3.15,3.15,0,0,1,.83,2.12,12.31,12.31,0,0,1-.58,3.12c-.38,1.34-.82,2.74-1.32,4.21-.41,1.24-.78,2.41-1.1,3.5a15.69,15.69,0,0,0-.58,2.68c-.08.68.06,1,.41,1a3,3,0,0,0,2.12-1.25,19.76,19.76,0,0,0,2.23-3.15q1.11-1.89,2.09-3.95c.64-1.38,1.2-2.62,1.68-3.74s.65-2.19.89-3.12a9.57,9.57,0,0,0,.36-2.24,1,1,0,0,1,.45-1,2.15,2.15,0,0,1,1.15-.28,5.18,5.18,0,0,1,2.15.55,6.3,6.3,0,0,1,2,1.5,3.11,3.11,0,0,1,.83,2.12,9.61,9.61,0,0,1-.38,2.55c-.25.93-.57,1.93-.93,3-.45,1.37-.87,2.82-1.27,4.33a18.29,18.29,0,0,0-.6,4.67,7.51,7.51,0,0,0,.19,1.81c.13.52.25,1,.36,1.31a3,3,0,0,1,.23,1c0,.21-.21.31-.61.31a8.73,8.73,0,0,1-4.28-.86,4.81,4.81,0,0,1-2.09-2.23,7.25,7.25,0,0,1-.63-3.81,24.21,24.21,0,0,1-2,3.5,11.4,11.4,0,0,1-2.32,2.48,4.19,4.19,0,0,1-2.52.92,5.83,5.83,0,0,1-4.45-1.58,6.29,6.29,0,0,1-1.49-4.48,20.36,20.36,0,0,1,.67-4.82q.67-2.67,1.44-5.19c.37-1.24.68-2.37.95-3.39a10.24,10.24,0,0,0,.39-2.4,1,1,0,0,1,.47-1A2.19,2.19,0,0,1,294.52,441.44Z"/><path class="c" d="M326.25,449a3.17,3.17,0,0,0,.14-1.59,3,3,0,0,0-.7-1.59,2.15,2.15,0,0,0-1.74-.69,1.94,1.94,0,0,0-1.48.59,2.08,2.08,0,0,0-.58,1.51,3.4,3.4,0,0,0,.77,2.18,17.9,17.9,0,0,0,1.82,1.94c.59.56,1.17,1.17,1.75,1.83a9.46,9.46,0,0,1,1.43,2.28,7.17,7.17,0,0,1,.58,3,6.24,6.24,0,0,1-.82,3.26,7.33,7.33,0,0,1-2.08,2.31,9.6,9.6,0,0,1-5.46,1.83,11.63,11.63,0,0,1-4.16-.73,7.09,7.09,0,0,1-3.1-2.2,5.87,5.87,0,0,1-1.17-3.77,6.22,6.22,0,0,1,.69-3,5.42,5.42,0,0,1,1.75-1.94,5,5,0,0,1,2.17-.8,3.21,3.21,0,0,1,2,.38,2.6,2.6,0,0,0-.81,1.38,3.62,3.62,0,0,0,0,1.73,3.12,3.12,0,0,0,.83,1.51,2.3,2.3,0,0,0,1.7.63,2.11,2.11,0,0,0,1.35-.41,2.28,2.28,0,0,0,.71-1,3,3,0,0,0,.22-1.08,3.72,3.72,0,0,0-.38-1.64,7.37,7.37,0,0,0-1-1.51c-.42-.49-.86-1-1.34-1.47a21.86,21.86,0,0,1-1.51-1.67,9,9,0,0,1-1.2-1.87,5,5,0,0,1-.48-2.19,6.49,6.49,0,0,1,.7-2.87,5.67,5.67,0,0,1,2.27-2.35,8.36,8.36,0,0,1,4.24-.93,8.59,8.59,0,0,1,3.8.81,6.73,6.73,0,0,1,2.61,2.15,4.84,4.84,0,0,1,.94,2.88,5.36,5.36,0,0,1-.53,2.6,3.62,3.62,0,0,1-2.88,1.94,2.86,2.86,0,0,1-1.32-.16c-.35-.14-.53-.33-.53-.57C325.8,449.68,326.07,449.45,326.25,449Z"/><path class="c" d="M342.42,441.49a5.07,5.07,0,0,1,2.58.65,4.45,4.45,0,0,1,1.82,1.94,7,7,0,0,1,.67,3.25,8.52,8.52,0,0,1-1,3.86,10.63,10.63,0,0,1-3.18,3.67,12.23,12.23,0,0,1-5.38,2.17,3.49,3.49,0,0,0,1.36,1.75,4.7,4.7,0,0,0,2.69.67A4.94,4.94,0,0,0,344,459a15.72,15.72,0,0,0,1.7-.89,9.52,9.52,0,0,1,1-.51.8.8,0,0,1,.66-.06c.24.17.14.62-.3,1.34a11.84,11.84,0,0,1-2.07,2.39,14.94,14.94,0,0,1-3.35,2.32,9,9,0,0,1-4.12,1,7.55,7.55,0,0,1-4.88-1.84,7.36,7.36,0,0,1-1.82-2.47,8.57,8.57,0,0,1-.7-3.64,16.22,16.22,0,0,1,1.18-6.37,15.64,15.64,0,0,1,3.06-4.77,13.76,13.76,0,0,1,4-3A9.34,9.34,0,0,1,342.42,441.49Zm.24,5.17a3.22,3.22,0,0,0-2.33,1.33,11.29,11.29,0,0,0-1.95,3.26,10.34,10.34,0,0,0-.8,3.82,10,10,0,0,0,3.67-3.07,10.56,10.56,0,0,0,1.87-3.65C343.4,447.22,343.25,446.66,342.66,446.66Z"/></svg>